<svg xmlns="http://www.w3.org/2000/svg" xmlns:xlink="http://www.w3.org/1999/xlink" width="40" zoomAndPan="magnify" viewBox="0 0 30 30.000001" height="40" preserveAspectRatio="xMidYMid meet" version="1.0"><defs><clipPath id="47d39921e3"><path d="M 8.550781 7.417969 L 21.617188 7.417969 L 21.617188 21.9375 L 8.550781 21.9375 Z M 8.550781 7.417969 " clip-rule="nonzero"/></clipPath></defs><g clip-path="url(#47d39921e3)"><path fill="#ffffff" d="M 17.121094 14.679688 L 21.5625 7.953125 C 21.628906 7.851562 21.632812 7.722656 21.578125 7.613281 C 21.519531 7.507812 21.410156 7.441406 21.289062 7.441406 L 18.898438 7.441406 C 18.792969 7.441406 18.691406 7.492188 18.632812 7.582031 L 15.101562 12.703125 L 11.566406 7.582031 C 11.507812 7.492188 11.40625 7.441406 11.300781 7.441406 L 8.910156 7.441406 C 8.789062 7.441406 8.679688 7.507812 8.621094 7.613281 C 8.566406 7.71875 8.570312 7.851562 8.636719 7.949219 L 13.078125 14.679688 L 8.636719 21.40625 C 8.570312 21.503906 8.566406 21.636719 8.621094 21.742188 C 8.679688 21.847656 8.789062 21.917969 8.910156 21.917969 L 11.300781 21.917969 C 11.40625 21.917969 11.507812 21.863281 11.570312 21.773438 L 15.101562 16.652344 L 18.632812 21.773438 C 18.691406 21.863281 18.792969 21.917969 18.898438 21.917969 L 21.289062 21.917969 C 21.410156 21.917969 21.519531 21.847656 21.578125 21.742188 C 21.632812 21.636719 21.628906 21.503906 21.5625 21.40625 Z M 17.121094 14.679688 " fill-opacity="1" fill-rule="nonzero"/></g></svg>