<svg xmlns="http://www.w3.org/2000/svg" xmlns:xlink="http://www.w3.org/1999/xlink" width="208" zoomAndPan="magnify" viewBox="0 0 156 155.999997" height="208" preserveAspectRatio="xMidYMid meet" version="1.0"><defs><clipPath id="2ced9fe3d5"><path d="M 1.300781 2.835938 L 155.050781 2.835938 L 155.050781 118 L 1.300781 118 Z M 1.300781 2.835938 " clip-rule="nonzero"/></clipPath><clipPath id="54fd89a14f"><path d="M 1.300781 92 L 155.050781 92 L 155.050781 97 L 1.300781 97 Z M 1.300781 92 " clip-rule="nonzero"/></clipPath><clipPath id="49339803cc"><path d="M 45 138 L 111 138 L 111 152.835938 L 45 152.835938 Z M 45 138 " clip-rule="nonzero"/></clipPath></defs><g clip-path="url(#2ced9fe3d5)"><path fill="#5e17eb" d="M 12.28125 6.335938 C 8.203125 6.335938 4.859375 9.664062 4.859375 13.71875 L 4.859375 106.320312 C 4.859375 110.378906 8.171875 113.707031 12.28125 113.707031 L 144.109375 113.707031 C 148.1875 113.707031 151.527344 110.410156 151.527344 106.320312 L 151.527344 13.726562 C 151.527344 9.667969 148.1875 6.339844 144.109375 6.339844 Z M 144.074219 117.21875 L 12.28125 117.21875 C 6.253906 117.21875 1.34375 112.328125 1.34375 106.332031 L 1.34375 13.726562 C 1.34375 7.726562 6.253906 2.835938 12.28125 2.835938 L 144.109375 2.835938 C 150.136719 2.835938 155.046875 7.726562 155.046875 13.726562 L 155.046875 106.328125 C 155.011719 112.328125 150.136719 117.21875 144.074219 117.21875 Z M 144.074219 117.21875 " fill-opacity="1" fill-rule="evenodd"/></g><g clip-path="url(#54fd89a14f)"><path fill="#5e17eb" d="M 153.269531 96.0625 L 3.085938 96.0625 C 2.105469 96.0625 1.308594 95.265625 1.308594 94.292969 C 1.308594 93.320312 2.105469 92.523438 3.085938 92.523438 L 153.269531 92.523438 C 154.246094 92.523438 155.046875 93.320312 155.046875 94.292969 C 155.011719 95.265625 154.246094 96.0625 153.269531 96.0625 Z M 153.269531 96.0625 " fill-opacity="1" fill-rule="evenodd"/></g><path fill="#5e17eb" d="M 54.398438 141.703125 C 54.085938 141.703125 53.808594 141.632812 53.527344 141.460938 C 52.695312 140.980469 52.414062 139.898438 52.867188 139.070312 L 67.078125 114.582031 C 67.566406 113.75 68.648438 113.472656 69.484375 113.957031 C 70.320312 114.441406 70.597656 115.519531 70.113281 116.351562 L 55.898438 140.835938 C 55.585938 141.390625 54.992188 141.703125 54.398438 141.703125 Z M 54.398438 141.703125 " fill-opacity="1" fill-rule="evenodd"/><path fill="#5e17eb" d="M 101.953125 141.703125 C 101.363281 141.703125 100.769531 141.390625 100.417969 140.835938 L 86.207031 116.351562 C 85.71875 115.519531 86 114.445312 86.832031 113.957031 C 87.667969 113.472656 88.746094 113.75 89.238281 114.582031 L 103.453125 139.070312 C 103.9375 139.898438 103.660156 140.972656 102.789062 141.460938 C 102.582031 141.632812 102.269531 141.703125 101.953125 141.703125 Z M 101.953125 141.703125 " fill-opacity="1" fill-rule="evenodd"/><g clip-path="url(#49339803cc)"><path fill="#5e17eb" d="M 49.066406 149.332031 L 107.28125 149.332031 L 107.28125 145.515625 C 107.28125 143.398438 105.574219 141.699219 103.449219 141.699219 L 52.867188 141.699219 C 50.773438 141.699219 49.03125 143.398438 49.03125 145.515625 Z M 109.058594 152.835938 L 47.289062 152.835938 C 46.3125 152.835938 45.515625 152.039062 45.515625 151.066406 L 45.515625 145.515625 C 45.515625 141.492188 48.824219 138.195312 52.867188 138.195312 L 103.453125 138.195312 C 107.492188 138.195312 110.804688 141.492188 110.804688 145.515625 L 110.804688 151.066406 C 110.800781 152.039062 110.035156 152.835938 109.058594 152.835938 Z M 109.058594 152.835938 " fill-opacity="1" fill-rule="evenodd"/></g><path fill="#5e17eb" d="M 37.886719 81.597656 C 36.910156 81.597656 36.109375 80.800781 36.109375 79.863281 L 36.109375 19.03125 C 36.109375 18.058594 36.910156 17.265625 37.851562 17.265625 C 38.828125 17.265625 39.628906 18.058594 39.628906 19.03125 L 39.628906 79.863281 C 39.664062 80.835938 38.859375 81.597656 37.886719 81.597656 Z M 37.886719 81.597656 " fill-opacity="1" fill-rule="evenodd"/><path fill="#5e17eb" d="M 27.609375 30.925781 L 11.757812 30.925781 C 10.78125 30.925781 9.980469 30.128906 9.980469 29.191406 C 9.980469 28.21875 10.78125 27.421875 11.757812 27.421875 L 27.609375 27.421875 C 28.585938 27.421875 29.386719 28.21875 29.386719 29.191406 C 29.351562 30.128906 28.550781 30.925781 27.609375 30.925781 Z M 27.609375 30.925781 " fill-opacity="1" fill-rule="evenodd"/><path fill="#5e17eb" d="M 27.609375 41.054688 L 11.757812 41.054688 C 10.78125 41.054688 9.980469 40.257812 9.980469 39.285156 C 9.980469 38.3125 10.78125 37.515625 11.757812 37.515625 L 27.609375 37.515625 C 28.585938 37.515625 29.386719 38.3125 29.386719 39.285156 C 29.351562 40.257812 28.550781 41.054688 27.609375 41.054688 Z M 27.609375 41.054688 " fill-opacity="1" fill-rule="evenodd"/><path fill="#5e17eb" d="M 27.609375 51.179688 L 11.757812 51.179688 C 10.78125 51.179688 9.980469 50.382812 9.980469 49.410156 C 9.980469 48.4375 10.78125 47.640625 11.757812 47.640625 L 27.609375 47.640625 C 28.585938 47.640625 29.386719 48.4375 29.386719 49.410156 C 29.351562 50.417969 28.550781 51.179688 27.609375 51.179688 Z M 27.609375 51.179688 " fill-opacity="1" fill-rule="evenodd"/><path fill="#5e17eb" d="M 27.609375 61.34375 L 11.757812 61.34375 C 10.78125 61.34375 9.980469 60.546875 9.980469 59.574219 C 9.980469 58.601562 10.78125 57.804688 11.757812 57.804688 L 27.609375 57.804688 C 28.585938 57.804688 29.386719 58.601562 29.386719 59.574219 C 29.351562 60.546875 28.550781 61.34375 27.609375 61.34375 Z M 27.609375 61.34375 " fill-opacity="1" fill-rule="evenodd"/><path fill="#5e17eb" d="M 27.609375 71.472656 L 11.757812 71.472656 C 10.78125 71.472656 9.980469 70.675781 9.980469 69.738281 C 9.980469 68.765625 10.78125 67.96875 11.757812 67.96875 L 27.609375 67.96875 C 28.585938 67.96875 29.386719 68.765625 29.386719 69.738281 C 29.351562 70.675781 28.550781 71.472656 27.609375 71.472656 Z M 27.609375 71.472656 " fill-opacity="1" fill-rule="evenodd"/><path fill="#5e17eb" d="M 27.609375 81.597656 L 11.757812 81.597656 C 10.78125 81.597656 9.980469 80.800781 9.980469 79.863281 C 9.980469 78.890625 10.78125 78.09375 11.757812 78.09375 L 27.609375 78.09375 C 28.585938 78.09375 29.386719 78.890625 29.386719 79.863281 C 29.351562 80.835938 28.550781 81.597656 27.609375 81.597656 Z M 27.609375 81.597656 " fill-opacity="1" fill-rule="evenodd"/><path fill="#5e17eb" d="M 119.375 41.054688 C 118.644531 41.054688 117.980469 40.605469 117.738281 39.910156 L 110.105469 19.617188 C 109.757812 18.714844 110.210938 17.710938 111.148438 17.363281 C 112.054688 17.015625 113.0625 17.46875 113.414062 18.402344 L 121.042969 38.695312 C 121.394531 39.597656 120.902344 40.601562 120 40.949219 C 119.789062 41.019531 119.582031 41.054688 119.375 41.054688 Z M 119.375 41.054688 " fill-opacity="1" fill-rule="evenodd"/><path fill="#5e17eb" d="M 101.605469 41.054688 C 101.253906 41.054688 100.90625 40.949219 100.628906 40.742188 L 85.507812 30.613281 C 85.019531 30.300781 84.742188 29.746094 84.742188 29.15625 C 84.742188 28.566406 85.019531 28.046875 85.507812 27.699219 L 100.628906 17.570312 C 101.429688 17.015625 102.542969 17.257812 103.066406 18.054688 C 103.625 18.851562 103.382812 19.960938 102.582031 20.484375 L 89.625 29.15625 L 102.582031 37.828125 C 103.382812 38.382812 103.59375 39.457031 103.066406 40.257812 C 102.71875 40.777344 102.160156 41.054688 101.605469 41.054688 Z M 101.605469 41.054688 " fill-opacity="1" fill-rule="evenodd"/><path fill="#5e17eb" d="M 129.511719 41.054688 C 128.953125 41.054688 128.398438 40.777344 128.046875 40.292969 C 127.492188 39.496094 127.734375 38.386719 128.535156 37.863281 L 141.492188 29.191406 L 128.535156 20.519531 C 127.734375 19.964844 127.519531 18.890625 128.046875 18.089844 C 128.605469 17.292969 129.683594 17.082031 130.488281 17.605469 L 145.609375 27.734375 C 146.09375 28.046875 146.375 28.601562 146.375 29.191406 C 146.375 29.78125 146.09375 30.300781 145.609375 30.648438 L 130.488281 40.777344 C 130.175781 40.953125 129.859375 41.054688 129.511719 41.054688 Z M 129.511719 41.054688 " fill-opacity="1" fill-rule="evenodd"/><path fill="#5e17eb" d="M 27.609375 20.761719 L 11.757812 20.761719 C 10.78125 20.761719 9.980469 19.964844 9.980469 19.027344 C 9.980469 18.054688 10.78125 17.257812 11.757812 17.257812 L 27.609375 17.257812 C 28.585938 17.257812 29.386719 18.054688 29.386719 19.027344 C 29.351562 20 28.550781 20.761719 27.609375 20.761719 Z M 27.609375 20.761719 " fill-opacity="1" fill-rule="evenodd"/><path fill="#5e17eb" d="M 83.035156 20.761719 L 48.199219 20.761719 C 47.21875 20.761719 46.421875 19.964844 46.421875 19.027344 C 46.421875 18.054688 47.21875 17.257812 48.199219 17.257812 L 83.070312 17.257812 C 84.046875 17.257812 84.847656 18.054688 84.847656 19.027344 C 84.8125 20 84.011719 20.761719 83.035156 20.761719 Z M 83.035156 20.761719 " fill-opacity="1" fill-rule="evenodd"/><path fill="#5e17eb" d="M 73.769531 30.925781 L 48.199219 30.925781 C 47.21875 30.925781 46.421875 30.128906 46.421875 29.191406 C 46.421875 28.21875 47.21875 27.421875 48.199219 27.421875 L 73.769531 27.421875 C 74.746094 27.421875 75.546875 28.21875 75.546875 29.191406 C 75.511719 30.128906 74.746094 30.925781 73.769531 30.925781 Z M 73.769531 30.925781 " fill-opacity="1" fill-rule="evenodd"/><path fill="#5e17eb" d="M 83.035156 41.054688 L 48.199219 41.054688 C 47.21875 41.054688 46.421875 40.257812 46.421875 39.285156 C 46.421875 38.3125 47.21875 37.515625 48.199219 37.515625 L 83.070312 37.515625 C 84.046875 37.515625 84.847656 38.3125 84.847656 39.285156 C 84.8125 40.257812 84.011719 41.054688 83.035156 41.054688 Z M 83.035156 41.054688 " fill-opacity="1" fill-rule="evenodd"/><path fill="#5e17eb" d="M 107.84375 51.179688 L 48.203125 51.179688 C 47.226562 51.179688 46.425781 50.382812 46.425781 49.410156 C 46.425781 48.4375 47.226562 47.640625 48.203125 47.640625 L 107.84375 47.640625 C 108.820312 47.640625 109.585938 48.4375 109.585938 49.410156 C 109.585938 50.417969 108.816406 51.179688 107.84375 51.179688 Z M 107.84375 51.179688 " fill-opacity="1" fill-rule="evenodd"/><path fill="#5e17eb" d="M 102.058594 61.34375 L 48.199219 61.34375 C 47.21875 61.34375 46.421875 60.546875 46.421875 59.574219 C 46.421875 58.601562 47.21875 57.804688 48.199219 57.804688 L 102.054688 57.804688 C 103.03125 57.804688 103.832031 58.601562 103.832031 59.574219 C 103.832031 60.546875 103.03125 61.34375 102.058594 61.34375 Z M 102.058594 61.34375 " fill-opacity="1" fill-rule="evenodd"/><path fill="#5e17eb" d="M 102.058594 71.472656 L 48.199219 71.472656 C 47.21875 71.472656 46.421875 70.675781 46.421875 69.738281 C 46.421875 68.765625 47.21875 67.96875 48.199219 67.96875 L 102.054688 67.96875 C 103.03125 67.96875 103.832031 68.765625 103.832031 69.738281 C 103.832031 70.675781 103.03125 71.472656 102.058594 71.472656 Z M 102.058594 71.472656 " fill-opacity="1" fill-rule="evenodd"/><path fill="#5e17eb" d="M 107.84375 81.597656 L 48.203125 81.597656 C 47.226562 81.597656 46.425781 80.800781 46.425781 79.863281 C 46.425781 78.890625 47.226562 78.09375 48.203125 78.09375 L 107.84375 78.09375 C 108.820312 78.09375 109.585938 78.890625 109.585938 79.863281 C 109.585938 80.835938 108.816406 81.597656 107.84375 81.597656 Z M 107.84375 81.597656 " fill-opacity="1" fill-rule="evenodd"/><path fill="#5e17eb" d="M 128.289062 78.09375 L 130.347656 78.09375 L 130.347656 77.507812 C 130.347656 76.675781 130.9375 75.980469 131.738281 75.808594 C 133.097656 75.53125 134.351562 75.011719 135.535156 74.246094 C 136.234375 73.796875 137.136719 73.898438 137.730469 74.488281 L 138.148438 74.90625 L 139.613281 73.449219 L 139.191406 73.03125 C 138.601562 72.441406 138.496094 71.539062 138.949219 70.847656 C 139.714844 69.703125 140.242188 68.417969 140.519531 67.066406 C 140.691406 66.269531 141.425781 65.679688 142.226562 65.679688 L 142.820312 65.679688 L 142.820312 63.632812 L 142.226562 63.632812 C 141.390625 63.632812 140.691406 63.042969 140.519531 62.246094 C 140.242188 60.894531 139.683594 59.644531 138.949219 58.464844 C 138.5 57.769531 138.601562 56.871094 139.191406 56.28125 L 139.613281 55.863281 L 138.148438 54.40625 L 137.730469 54.824219 C 137.136719 55.414062 136.230469 55.519531 135.535156 55.066406 C 134.386719 54.304688 133.097656 53.78125 131.738281 53.503906 C 130.9375 53.332031 130.347656 52.601562 130.347656 51.804688 L 130.347656 51.214844 L 128.289062 51.214844 L 128.289062 51.804688 C 128.289062 52.636719 127.699219 53.332031 126.898438 53.503906 C 125.539062 53.78125 124.285156 54.335938 123.101562 55.066406 C 122.402344 55.515625 121.5 55.414062 120.90625 54.824219 L 120.488281 54.40625 L 119.023438 55.863281 L 119.445312 56.28125 C 120.035156 56.871094 120.140625 57.773438 119.6875 58.464844 C 118.921875 59.609375 118.394531 60.894531 118.117188 62.246094 C 117.945312 63.042969 117.210938 63.632812 116.410156 63.632812 L 115.820312 63.632812 L 115.820312 65.679688 L 116.410156 65.679688 C 117.246094 65.679688 117.945312 66.269531 118.117188 67.066406 C 118.394531 68.417969 118.917969 69.667969 119.6875 70.847656 C 120.136719 71.542969 120.035156 72.441406 119.445312 73.03125 L 119.023438 73.449219 L 120.488281 74.90625 L 120.90625 74.488281 C 121.5 73.898438 122.40625 73.792969 123.101562 74.246094 C 124.25 75.007812 125.539062 75.53125 126.898438 75.808594 C 127.699219 75.980469 128.289062 76.710938 128.289062 77.507812 Z M 132.125 81.597656 L 126.546875 81.597656 C 125.570312 81.597656 124.769531 80.800781 124.769531 79.828125 L 124.769531 78.820312 C 123.972656 78.578125 123.203125 78.230469 122.4375 77.847656 L 121.738281 78.542969 C 121.390625 78.855469 120.972656 79.0625 120.484375 79.0625 C 120.03125 79.0625 119.578125 78.890625 119.226562 78.542969 L 115.292969 74.628906 C 114.59375 73.933594 114.59375 72.824219 115.292969 72.167969 L 115.992188 71.472656 C 115.605469 70.746094 115.292969 69.945312 115.015625 69.148438 L 114 69.148438 C 113.023438 69.148438 112.257812 68.351562 112.257812 67.378906 L 112.257812 61.828125 C 112.257812 60.855469 113.058594 60.058594 114 60.058594 L 115.015625 60.058594 C 115.257812 59.261719 115.605469 58.496094 115.992188 57.734375 L 115.292969 57.039062 C 114.980469 56.726562 114.769531 56.277344 114.769531 55.789062 C 114.769531 55.339844 114.941406 54.886719 115.292969 54.539062 L 119.226562 50.621094 C 119.925781 49.925781 121.039062 49.925781 121.699219 50.621094 L 122.398438 51.316406 C 123.125 50.933594 123.929688 50.621094 124.730469 50.34375 L 124.730469 49.335938 C 124.730469 48.363281 125.53125 47.601562 126.507812 47.601562 L 132.085938 47.601562 C 133.0625 47.601562 133.859375 48.398438 133.859375 49.371094 L 133.859375 50.378906 C 134.660156 50.621094 135.429688 50.96875 136.195312 51.351562 L 136.894531 50.65625 C 137.59375 49.960938 138.707031 49.960938 139.367188 50.65625 L 143.300781 54.574219 C 144 55.269531 144 56.378906 143.300781 57.035156 L 142.601562 57.730469 C 142.988281 58.457031 143.300781 59.257812 143.578125 60.054688 L 144.589844 60.054688 C 145.570312 60.054688 146.367188 60.851562 146.367188 61.824219 L 146.367188 67.375 C 146.367188 68.347656 145.570312 69.144531 144.589844 69.144531 L 143.578125 69.144531 C 143.335938 69.941406 142.988281 70.707031 142.601562 71.46875 L 143.300781 72.164062 C 144 72.859375 144 73.96875 143.300781 74.621094 L 139.398438 78.609375 C 138.699219 79.304688 137.582031 79.304688 136.925781 78.609375 L 136.226562 77.914062 C 135.496094 78.296875 134.691406 78.609375 133.890625 78.886719 L 133.890625 79.894531 C 133.902344 80.835938 133.101562 81.632812 132.125 81.597656 Z M 132.125 81.597656 " fill-opacity="1" fill-rule="evenodd"/><path fill="#5e17eb" d="M 129.339844 60.648438 C 127.144531 60.648438 125.332031 62.453125 125.332031 64.636719 C 125.332031 66.855469 127.144531 68.625 129.339844 68.625 C 131.566406 68.625 133.34375 66.820312 133.34375 64.636719 C 133.34375 62.453125 131.53125 60.648438 129.339844 60.648438 Z M 129.339844 72.167969 C 125.191406 72.167969 121.8125 68.804688 121.8125 64.675781 C 121.8125 60.546875 125.191406 57.183594 129.339844 57.183594 C 133.484375 57.183594 136.863281 60.546875 136.863281 64.675781 C 136.863281 68.800781 133.480469 72.167969 129.339844 72.167969 Z M 129.339844 72.167969 " fill-opacity="1" fill-rule="evenodd"/></svg>