<svg xmlns="http://www.w3.org/2000/svg" xmlns:xlink="http://www.w3.org/1999/xlink" width="300" zoomAndPan="magnify" viewBox="0 0 224.87999 225" height="300" preserveAspectRatio="xMidYMid meet" version="1.0"><defs><clipPath id="fb9b89c654"><path d="M 0 0.0585938 L 224.761719 0.0585938 L 224.761719 224.9375 L 0 224.9375 Z M 0 0.0585938 " clip-rule="nonzero"/></clipPath><clipPath id="ec083b7f8e"><path d="M 112.441406 0.0585938 C 50.339844 0.0585938 0 50.402344 0 112.5 C 0 174.597656 50.339844 224.941406 112.441406 224.941406 C 174.539062 224.941406 224.878906 174.597656 224.878906 112.5 C 224.878906 50.402344 174.539062 0.0585938 112.441406 0.0585938 " clip-rule="nonzero"/></clipPath><clipPath id="faae93692c"><path d="M 152 67.523438 L 214.386719 67.523438 L 214.386719 157.476562 L 152 157.476562 Z M 152 67.523438 " clip-rule="nonzero"/></clipPath><clipPath id="126acf1f27"><path d="M 112.441406 67.523438 L 155 67.523438 L 155 75 L 112.441406 75 Z M 112.441406 67.523438 " clip-rule="nonzero"/></clipPath><clipPath id="9aeae99456"><path d="M 166 85 L 175 85 L 175 157.476562 L 166 157.476562 Z M 166 85 " clip-rule="nonzero"/></clipPath><clipPath id="47587a8e3e"><path d="M 12.484375 97 L 96.441406 97 L 96.441406 157.476562 L 12.484375 157.476562 Z M 12.484375 97 " clip-rule="nonzero"/></clipPath><clipPath id="23db6d9032"><path d="M 12.484375 67.523438 L 96.441406 67.523438 L 96.441406 110 L 12.484375 110 Z M 12.484375 67.523438 " clip-rule="nonzero"/></clipPath><clipPath id="f02c380cc8"><path d="M 103.351562 142.128906 L 132.585938 142.128906 L 132.585938 170.613281 L 103.351562 170.613281 Z M 103.351562 142.128906 " clip-rule="nonzero"/></clipPath></defs><g clip-path="url(#fb9b89c654)"><g clip-path="url(#ec083b7f8e)"><path fill="#5e17eb" d="M 0 0.0585938 L 224.878906 0.0585938 L 224.878906 224.941406 L 0 224.941406 Z M 0 0.0585938 " fill-opacity="1" fill-rule="nonzero"/></g></g><g clip-path="url(#faae93692c)"><path fill="#ffffff" d="M 162.535156 67.550781 L 152.082031 77.972656 L 152.082031 149.632812 L 159.921875 157.449219 L 159.921875 81.882812 L 167.546875 74.285156 L 204.574219 74.285156 L 214.375 67.550781 Z M 162.535156 67.550781 " fill-opacity="1" fill-rule="nonzero"/></g><g clip-path="url(#126acf1f27)"><path fill="#ffffff" d="M 112.441406 67.550781 L 122.242188 74.285156 L 144.894531 74.285156 L 154.695312 67.550781 Z M 112.441406 67.550781 " fill-opacity="1" fill-rule="nonzero"/></g><g clip-path="url(#9aeae99456)"><path fill="#ffffff" d="M 166.457031 157.449219 L 174.300781 149.632812 L 174.300781 85.140625 L 166.457031 85.140625 Z M 166.457031 157.449219 " fill-opacity="1" fill-rule="nonzero"/></g><g clip-path="url(#47587a8e3e)"><path fill="#ffffff" d="M 12.527344 97.648438 L 12.527344 149.207031 L 25.714844 157.476562 L 25.714844 139.304688 L 25.78125 139.304688 L 25.78125 122.34375 L 54.460938 139.710938 L 83.679688 122.34375 L 83.679688 156.972656 L 96.394531 149.75 L 96.394531 97.648438 L 54.191406 123.15625 Z M 12.527344 97.648438 " fill-opacity="1" fill-rule="nonzero"/></g><g clip-path="url(#23db6d9032)"><path fill="#ffffff" d="M 12.527344 83.261719 L 12.527344 67.523438 L 54.730469 93.03125 L 96.394531 67.523438 L 96.394531 84.351562 L 54.730469 109.316406 Z M 12.527344 83.261719 " fill-opacity="1" fill-rule="nonzero"/></g><g clip-path="url(#f02c380cc8)"><path fill="#ffffff" d="M 147.59375 142.433594 C 147.328125 142.5 147.128906 142.535156 146.996094 142.464844 C 146.859375 142.433594 146.695312 142.433594 146.5625 142.5 C 146.394531 142.566406 146.226562 142.566406 145.992188 142.566406 C 145.761719 142.535156 145.59375 142.566406 145.460938 142.632812 C 145.328125 142.699219 145.191406 142.734375 144.992188 142.699219 C 144.792969 142.667969 144.625 142.699219 144.425781 142.800781 C 144.226562 142.902344 144.058594 142.9375 143.890625 142.9375 C 143.757812 142.9375 143.589844 142.96875 143.457031 143.070312 C 143.324219 143.171875 143.15625 143.203125 142.957031 143.203125 C 142.757812 143.203125 142.492188 143.304688 142.089844 143.507812 C 141.722656 143.742188 141.488281 143.839844 141.355469 143.875 C 141.257812 143.875 141.1875 143.910156 141.15625 143.976562 C 141.121094 144.042969 141.023438 144.078125 140.789062 144.109375 C 140.554688 144.144531 140.421875 144.210938 140.320312 144.3125 C 140.253906 144.410156 140.054688 144.511719 139.789062 144.613281 C 139.519531 144.714844 139.289062 144.847656 139.152344 145.015625 C 139.019531 145.183594 138.921875 145.25 138.820312 145.25 C 138.71875 145.25 138.652344 145.25 138.554688 145.316406 C 138.453125 145.382812 138.386719 145.453125 138.285156 145.585938 C 138.21875 145.6875 138.1875 145.753906 138.152344 145.71875 C 138.121094 145.71875 138.054688 145.753906 137.917969 145.820312 C 137.820312 145.921875 137.6875 146.054688 137.550781 146.222656 C 137.417969 146.425781 137.285156 146.523438 137.21875 146.59375 C 137.117188 146.660156 136.953125 146.792969 136.785156 147.027344 C 136.585938 147.261719 136.453125 147.363281 136.417969 147.363281 C 136.351562 147.363281 136.316406 147.464844 136.25 147.664062 C 136.183594 147.867188 136.019531 148.066406 135.816406 148.269531 C 135.582031 148.46875 135.417969 148.707031 135.316406 148.941406 C 135.21875 149.207031 135.117188 149.34375 135.050781 149.375 C 134.949219 149.445312 134.917969 149.511719 134.882812 149.644531 C 134.851562 149.777344 134.816406 149.847656 134.75 149.847656 C 134.714844 149.878906 134.683594 149.914062 134.683594 150.015625 C 134.683594 150.113281 134.648438 150.179688 134.617188 150.179688 C 134.582031 150.179688 134.550781 150.25 134.550781 150.316406 C 134.550781 150.382812 134.515625 150.449219 134.449219 150.484375 C 134.382812 150.550781 134.316406 150.785156 134.183594 151.253906 C 134.082031 151.722656 133.980469 151.992188 133.882812 152.09375 C 133.78125 152.195312 133.75 152.292969 133.75 152.429688 C 133.78125 152.5625 133.75 152.628906 133.714844 152.695312 C 133.648438 152.765625 133.648438 152.933594 133.648438 153.199219 C 133.648438 153.503906 133.648438 153.636719 133.617188 153.671875 C 133.582031 153.703125 133.546875 153.738281 133.546875 153.835938 C 133.546875 153.9375 133.515625 154.003906 133.480469 154.039062 C 133.414062 154.074219 133.382812 154.171875 133.382812 154.375 C 133.347656 154.542969 133.382812 154.742188 133.449219 154.945312 C 133.515625 155.144531 133.515625 155.3125 133.449219 155.414062 C 133.382812 155.515625 133.382812 155.683594 133.382812 155.917969 C 133.382812 156.152344 133.414062 156.285156 133.449219 156.355469 C 133.515625 156.421875 133.515625 156.519531 133.515625 156.6875 C 133.515625 156.855469 133.546875 156.921875 133.582031 156.957031 C 133.617188 156.992188 133.648438 157.191406 133.648438 157.59375 C 133.648438 157.996094 133.714844 158.230469 133.75 158.230469 C 133.78125 158.265625 133.847656 158.367188 133.847656 158.5 C 133.882812 158.632812 133.914062 158.703125 133.949219 158.734375 C 133.980469 158.769531 134.050781 158.9375 134.117188 159.273438 C 134.183594 159.640625 134.25 159.84375 134.347656 159.910156 C 134.449219 159.976562 134.484375 160.109375 134.484375 160.277344 C 134.484375 160.378906 134.484375 160.445312 134.484375 160.546875 C 134.515625 160.546875 134.515625 160.546875 134.550781 160.546875 C 134.582031 160.546875 134.683594 160.648438 134.816406 160.882812 C 134.984375 161.082031 135.050781 161.285156 135.050781 161.417969 C 135.050781 161.484375 135.050781 161.554688 135.050781 161.621094 C 135.082031 161.621094 135.082031 161.621094 135.117188 161.621094 C 135.117188 161.621094 135.148438 161.621094 135.183594 161.621094 C 135.183594 161.652344 135.183594 161.652344 135.183594 161.6875 C 135.183594 161.753906 135.25 161.820312 135.351562 161.988281 C 135.484375 162.125 135.550781 162.222656 135.617188 162.257812 C 135.683594 162.257812 135.683594 162.289062 135.683594 162.359375 C 135.683594 162.425781 135.71875 162.457031 135.816406 162.457031 C 135.851562 162.457031 135.917969 162.492188 135.949219 162.492188 C 135.949219 162.527344 135.917969 162.527344 135.917969 162.558594 C 135.917969 162.59375 135.917969 162.59375 135.882812 162.59375 C 135.917969 162.625 135.949219 162.625 135.984375 162.660156 C 136.050781 162.695312 136.117188 162.761719 136.152344 162.894531 C 136.21875 163.027344 136.316406 163.128906 136.453125 163.230469 C 136.585938 163.332031 136.71875 163.464844 136.820312 163.597656 C 136.917969 163.734375 137.117188 164 137.453125 164.335938 C 137.785156 164.671875 137.984375 164.839844 138.019531 164.839844 C 138.054688 164.839844 138.085938 164.839844 138.085938 164.839844 C 138.085938 164.875 138.085938 164.875 138.085938 164.90625 C 138.085938 164.972656 138.152344 165.007812 138.253906 165.074219 C 138.351562 165.140625 138.488281 165.242188 138.585938 165.378906 C 138.6875 165.511719 138.820312 165.644531 138.988281 165.746094 C 139.152344 165.847656 139.253906 165.945312 139.289062 166.015625 C 139.320312 166.082031 139.386719 166.113281 139.453125 166.082031 C 139.519531 166.046875 139.585938 166.113281 139.65625 166.214844 C 139.722656 166.316406 139.820312 166.417969 139.988281 166.484375 C 140.121094 166.515625 140.253906 166.617188 140.386719 166.753906 C 140.523438 166.886719 140.65625 166.988281 140.820312 167.054688 C 140.988281 167.121094 141.089844 167.1875 141.121094 167.253906 C 141.15625 167.324219 141.222656 167.390625 141.289062 167.390625 C 141.390625 167.421875 141.421875 167.492188 141.457031 167.523438 C 141.457031 167.589844 141.589844 167.65625 141.789062 167.726562 C 142.023438 167.792969 142.191406 167.859375 142.324219 167.992188 C 142.457031 168.09375 142.589844 168.128906 142.722656 168.128906 C 142.859375 168.128906 143.058594 168.226562 143.292969 168.394531 C 143.523438 168.5625 143.691406 168.628906 143.757812 168.628906 C 143.792969 168.628906 143.792969 168.597656 143.824219 168.597656 C 143.824219 168.628906 143.824219 168.628906 143.824219 168.628906 C 143.824219 168.664062 143.890625 168.699219 144.023438 168.699219 C 144.160156 168.730469 144.257812 168.765625 144.359375 168.832031 C 144.457031 168.898438 144.59375 168.964844 144.792969 168.964844 C 145.027344 169 145.191406 169.035156 145.328125 169.101562 C 145.460938 169.167969 145.59375 169.199219 145.726562 169.199219 C 145.859375 169.199219 146.058594 169.234375 146.359375 169.335938 C 146.628906 169.4375 146.894531 169.46875 147.09375 169.4375 C 147.296875 169.402344 147.460938 169.402344 147.5625 169.46875 C 147.695312 169.535156 147.828125 169.570312 148.027344 169.535156 C 148.230469 169.503906 148.394531 169.503906 148.5625 169.570312 C 148.730469 169.605469 148.863281 169.636719 149.03125 169.636719 C 149.195312 169.636719 149.261719 169.605469 149.296875 169.570312 C 149.332031 169.535156 149.429688 169.535156 149.628906 169.570312 C 149.832031 169.605469 149.929688 169.605469 149.996094 169.535156 C 150.0625 169.46875 150.132812 169.46875 150.230469 169.46875 C 150.332031 169.46875 150.363281 169.503906 150.363281 169.535156 C 150.398438 169.570312 150.496094 169.605469 150.730469 169.605469 C 150.933594 169.636719 151.132812 169.605469 151.265625 169.535156 C 151.398438 169.46875 151.632812 169.4375 151.898438 169.402344 C 152.167969 169.367188 152.367188 169.335938 152.5 169.269531 C 152.632812 169.199219 152.734375 169.167969 152.800781 169.199219 C 152.867188 169.234375 152.933594 169.199219 153 169.132812 C 153.066406 169.066406 153.199219 169.035156 153.367188 169 C 153.566406 168.964844 153.800781 168.898438 154.136719 168.730469 C 154.433594 168.5625 154.734375 168.496094 155.003906 168.464844 C 155.269531 168.429688 155.4375 168.363281 155.535156 168.261719 C 155.636719 168.160156 155.734375 168.09375 155.835938 168.128906 C 155.9375 168.160156 156.035156 168.128906 156.101562 168.058594 C 156.171875 167.992188 156.238281 167.925781 156.238281 167.894531 C 156.238281 167.859375 156.238281 167.824219 156.238281 167.824219 C 156.269531 167.824219 156.269531 167.824219 156.304688 167.824219 C 156.335938 167.824219 156.371094 167.824219 156.371094 167.824219 C 156.371094 167.792969 156.371094 167.792969 156.371094 167.757812 C 156.371094 167.726562 156.371094 167.691406 156.371094 167.691406 C 156.402344 167.691406 156.4375 167.691406 156.46875 167.691406 C 156.503906 167.691406 156.535156 167.691406 156.570312 167.691406 C 156.570312 167.65625 156.570312 167.65625 156.570312 167.65625 C 156.570312 167.625 156.671875 167.558594 156.835938 167.492188 C 157.003906 167.421875 157.171875 167.355469 157.304688 167.355469 C 157.472656 167.324219 157.570312 167.253906 157.605469 167.15625 C 157.636719 167.054688 157.738281 166.921875 157.90625 166.820312 C 158.039062 166.683594 158.207031 166.617188 158.304688 166.585938 C 158.4375 166.550781 158.503906 166.484375 158.539062 166.382812 C 158.574219 166.28125 158.640625 166.214844 158.773438 166.148438 C 158.90625 166.113281 159.074219 165.914062 159.375 165.578125 C 159.640625 165.242188 159.808594 165.074219 159.875 165.074219 C 159.90625 165.074219 159.972656 165.042969 160.007812 164.941406 C 160.039062 164.839844 160.105469 164.808594 160.175781 164.808594 C 160.242188 164.773438 160.308594 164.707031 160.339844 164.605469 C 160.375 164.472656 160.472656 164.371094 160.609375 164.238281 C 160.707031 164.136719 160.808594 163.96875 160.90625 163.734375 C 161.007812 163.53125 161.109375 163.332031 161.273438 163.195312 C 161.441406 163.0625 161.507812 162.929688 161.542969 162.828125 C 161.574219 162.726562 161.609375 162.625 161.707031 162.492188 C 161.808594 162.359375 161.910156 162.15625 161.976562 161.886719 C 162.042969 161.585938 162.109375 161.453125 162.140625 161.453125 C 162.175781 161.453125 162.210938 161.351562 162.210938 161.183594 C 162.210938 161.015625 162.308594 160.816406 162.441406 160.679688 C 162.574219 160.546875 162.644531 160.3125 162.675781 160.042969 C 162.710938 159.773438 162.710938 159.605469 162.777344 159.574219 C 162.808594 159.539062 162.84375 159.304688 162.84375 158.871094 C 162.84375 158.433594 162.875 158.132812 162.941406 157.996094 C 163.011719 157.828125 163.042969 157.695312 163.042969 157.59375 C 163.042969 157.492188 163.011719 157.425781 162.976562 157.394531 C 162.941406 157.359375 162.941406 157.257812 162.941406 157.058594 C 162.941406 156.855469 162.976562 156.757812 162.976562 156.6875 C 163.011719 156.65625 163.011719 156.589844 162.941406 156.421875 C 162.910156 156.285156 162.875 156.117188 162.910156 155.917969 C 162.941406 155.714844 162.941406 155.546875 162.941406 155.378906 C 162.941406 155.214844 162.875 155.113281 162.808594 155.011719 C 162.742188 154.910156 162.710938 154.84375 162.742188 154.742188 C 162.777344 154.644531 162.742188 154.507812 162.675781 154.339844 C 162.609375 154.171875 162.542969 153.9375 162.507812 153.636719 C 162.476562 153.335938 162.410156 153.132812 162.34375 153 C 162.242188 152.898438 162.210938 152.695312 162.140625 152.460938 C 162.109375 152.195312 162.042969 152.027344 161.941406 151.925781 C 161.84375 151.792969 161.773438 151.558594 161.675781 151.222656 C 161.574219 150.886719 161.542969 150.683594 161.476562 150.652344 C 161.441406 150.617188 161.410156 150.582031 161.441406 150.515625 C 161.441406 150.484375 161.476562 150.484375 161.476562 150.449219 C 161.441406 150.449219 161.441406 150.484375 161.441406 150.484375 C 161.410156 150.484375 161.410156 150.515625 161.375 150.515625 C 161.339844 150.484375 161.339844 150.417969 161.308594 150.382812 C 161.242188 150.28125 161.207031 150.214844 161.140625 150.214844 C 161.074219 150.179688 161.042969 150.148438 161.007812 150.046875 C 160.972656 149.945312 160.875 149.8125 160.640625 149.609375 C 160.441406 149.410156 160.308594 149.277344 160.308594 149.207031 C 160.308594 149.140625 160.273438 149.074219 160.207031 149.039062 C 160.140625 149.007812 160.105469 148.941406 160.140625 148.90625 C 160.175781 148.875 160.074219 148.804688 159.90625 148.671875 C 159.738281 148.539062 159.605469 148.402344 159.507812 148.269531 C 159.40625 148.136719 159.375 148.035156 159.375 148 C 159.375 147.96875 159.40625 147.96875 159.40625 147.96875 C 159.375 147.96875 159.339844 147.96875 159.339844 147.96875 C 159.304688 147.96875 159.171875 147.832031 158.972656 147.53125 C 158.773438 147.261719 158.605469 147.027344 158.472656 146.894531 C 158.339844 146.761719 158.238281 146.691406 158.171875 146.660156 C 158.105469 146.660156 158.070312 146.59375 158.039062 146.523438 C 158.003906 146.457031 157.9375 146.390625 157.773438 146.257812 C 157.605469 146.15625 157.503906 146.054688 157.4375 145.953125 C 157.371094 145.855469 157.304688 145.785156 157.238281 145.785156 C 157.171875 145.753906 157.105469 145.71875 157.070312 145.621094 C 157.039062 145.519531 156.9375 145.453125 156.804688 145.382812 C 156.671875 145.316406 156.570312 145.285156 156.535156 145.316406 C 156.503906 145.316406 156.503906 145.351562 156.46875 145.351562 C 156.46875 145.316406 156.46875 145.285156 156.4375 145.285156 C 156.402344 145.21875 156.335938 145.148438 156.203125 145.082031 C 156.070312 144.980469 155.96875 144.949219 155.902344 144.949219 C 155.835938 144.949219 155.703125 144.882812 155.503906 144.714844 C 155.300781 144.546875 155.070312 144.445312 154.867188 144.34375 C 154.636719 144.242188 154.5 144.175781 154.5 144.144531 C 154.5 144.109375 154.433594 144.078125 154.300781 144.078125 C 154.167969 144.078125 154.035156 143.976562 153.933594 143.808594 C 153.835938 143.671875 153.5 143.539062 152.96875 143.472656 C 152.433594 143.371094 152.066406 143.269531 151.832031 143.171875 C 151.632812 143.070312 151.398438 143.003906 151.230469 143.035156 C 151.03125 143.035156 150.933594 143.035156 150.863281 142.96875 C 150.796875 142.902344 150.632812 142.867188 150.296875 142.867188 C 150.132812 142.867188 149.996094 142.867188 149.832031 142.867188 C 149.832031 142.835938 149.832031 142.835938 149.832031 142.800781 C 149.832031 142.769531 149.832031 142.769531 149.832031 142.734375 C 149.695312 142.734375 149.5625 142.734375 149.429688 142.734375 C 149.164062 142.734375 148.996094 142.734375 148.996094 142.667969 C 148.964844 142.632812 148.863281 142.632812 148.695312 142.632812 C 148.53125 142.632812 148.394531 142.632812 148.296875 142.566406 C 148.195312 142.5 147.863281 142.367188 147.59375 142.433594 Z M 177.957031 142.5 C 177.757812 142.566406 177.589844 142.601562 177.457031 142.566406 C 177.324219 142.535156 177.191406 142.5 177.089844 142.5 C 176.988281 142.5 176.921875 142.535156 176.855469 142.566406 C 176.824219 142.601562 176.65625 142.632812 176.457031 142.601562 C 176.222656 142.601562 176.054688 142.601562 175.890625 142.667969 C 175.753906 142.734375 175.589844 142.769531 175.386719 142.699219 C 175.222656 142.667969 175.019531 142.699219 174.820312 142.800781 C 174.621094 142.902344 174.453125 142.9375 174.289062 142.9375 C 174.121094 142.902344 173.988281 142.96875 173.886719 143.070312 C 173.785156 143.171875 173.585938 143.203125 173.351562 143.203125 C 173.121094 143.203125 172.984375 143.238281 172.953125 143.269531 C 172.917969 143.304688 172.851562 143.339844 172.820312 143.339844 C 172.785156 143.339844 172.585938 143.40625 172.351562 143.574219 C 172.085938 143.742188 171.953125 143.808594 171.886719 143.773438 C 171.851562 143.773438 171.816406 143.742188 171.785156 143.742188 C 171.785156 143.773438 171.816406 143.773438 171.816406 143.808594 C 171.816406 143.839844 171.785156 143.875 171.71875 143.941406 C 171.652344 144.007812 171.484375 144.042969 171.25 144.078125 C 171.050781 144.109375 170.882812 144.175781 170.816406 144.277344 C 170.71875 144.378906 170.550781 144.480469 170.25 144.578125 C 169.984375 144.679688 169.78125 144.78125 169.714844 144.914062 C 169.648438 145.050781 169.515625 145.117188 169.28125 145.183594 C 169.050781 145.25 168.914062 145.351562 168.816406 145.484375 C 168.714844 145.621094 168.613281 145.6875 168.546875 145.6875 C 168.480469 145.6875 168.414062 145.71875 168.316406 145.789062 C 168.214844 145.855469 168.179688 145.953125 168.148438 146.054688 C 168.113281 146.15625 168.082031 146.222656 168.015625 146.222656 C 167.949219 146.222656 167.914062 146.257812 167.847656 146.355469 C 167.8125 146.457031 167.714844 146.492188 167.613281 146.558594 C 167.515625 146.625 167.449219 146.660156 167.414062 146.761719 C 167.378906 146.859375 167.246094 146.960938 167.046875 147.128906 C 166.847656 147.296875 166.648438 147.496094 166.511719 147.765625 C 166.378906 148.035156 166.214844 148.234375 166.046875 148.335938 C 165.878906 148.4375 165.746094 148.636719 165.644531 148.875 C 165.546875 149.109375 165.445312 149.277344 165.378906 149.34375 C 165.277344 149.375 165.246094 149.476562 165.210938 149.609375 C 165.179688 149.710938 165.144531 149.8125 165.078125 149.8125 C 165.046875 149.847656 165.011719 149.878906 165.046875 149.945312 C 165.078125 150.015625 165.046875 150.082031 164.976562 150.113281 C 164.910156 150.148438 164.878906 150.214844 164.878906 150.316406 C 164.878906 150.417969 164.84375 150.449219 164.777344 150.484375 C 164.710938 150.515625 164.644531 150.75 164.511719 151.222656 C 164.410156 151.65625 164.3125 151.960938 164.246094 152.027344 C 164.175781 152.09375 164.109375 152.226562 164.109375 152.363281 C 164.109375 152.496094 164.078125 152.597656 164.042969 152.628906 C 164.011719 152.664062 163.976562 152.796875 164.011719 152.964844 C 164.042969 153.132812 164.042969 153.234375 163.976562 153.265625 C 163.910156 153.300781 163.910156 153.402344 163.910156 153.535156 C 163.910156 153.671875 163.878906 153.804688 163.8125 153.90625 C 163.742188 154.003906 163.710938 154.242188 163.742188 154.675781 C 163.742188 155.113281 163.742188 155.347656 163.710938 155.414062 C 163.675781 155.480469 163.675781 155.617188 163.675781 155.851562 C 163.675781 155.984375 163.675781 156.085938 163.675781 156.21875 C 163.710938 156.21875 163.710938 156.21875 163.710938 156.21875 C 163.742188 156.21875 163.777344 156.320312 163.777344 156.554688 C 163.8125 156.757812 163.8125 156.890625 163.84375 156.890625 C 163.878906 156.921875 163.910156 157.125 163.910156 157.527344 C 163.945312 157.929688 163.976562 158.164062 164.011719 158.199219 C 164.042969 158.230469 164.109375 158.332031 164.109375 158.46875 C 164.144531 158.566406 164.144531 158.667969 164.210938 158.667969 C 164.246094 158.703125 164.3125 158.871094 164.378906 159.238281 C 164.445312 159.605469 164.511719 159.808594 164.613281 159.875 C 164.710938 159.941406 164.746094 160.078125 164.746094 160.246094 C 164.746094 160.34375 164.746094 160.414062 164.746094 160.511719 C 164.777344 160.511719 164.777344 160.511719 164.777344 160.511719 C 164.8125 160.511719 164.84375 160.546875 164.878906 160.648438 C 164.910156 160.746094 164.945312 160.78125 164.976562 160.78125 C 165.011719 160.78125 165.011719 160.78125 165.011719 160.78125 C 165.011719 160.78125 164.976562 160.816406 164.976562 160.816406 C 164.945312 160.847656 165.011719 160.914062 165.113281 161.015625 C 165.210938 161.117188 165.246094 161.21875 165.246094 161.351562 C 165.246094 161.484375 165.277344 161.585938 165.378906 161.652344 C 165.480469 161.71875 165.546875 161.855469 165.644531 162.023438 C 165.746094 162.191406 165.847656 162.289062 165.945312 162.359375 C 166.046875 162.425781 166.144531 162.492188 166.214844 162.625 C 166.246094 162.761719 166.347656 162.894531 166.511719 162.996094 C 166.679688 163.097656 166.78125 163.230469 166.847656 163.363281 C 166.914062 163.5 167.113281 163.765625 167.480469 164.136719 C 167.847656 164.539062 168.046875 164.738281 168.046875 164.808594 C 168.082031 164.875 168.113281 164.90625 168.214844 164.941406 C 168.316406 164.972656 168.414062 165.042969 168.480469 165.175781 C 168.546875 165.277344 168.648438 165.378906 168.816406 165.476562 C 168.980469 165.578125 169.117188 165.679688 169.28125 165.878906 C 169.449219 166.082031 169.582031 166.183594 169.683594 166.214844 C 169.816406 166.25 169.949219 166.351562 170.082031 166.484375 C 170.25 166.617188 170.382812 166.753906 170.484375 166.785156 C 170.582031 166.851562 170.683594 166.886719 170.71875 166.953125 C 170.75 167.019531 170.851562 167.085938 170.984375 167.121094 C 171.117188 167.1875 171.21875 167.222656 171.25 167.289062 C 171.285156 167.355469 171.351562 167.390625 171.484375 167.421875 C 171.585938 167.421875 171.683594 167.492188 171.71875 167.558594 C 171.75 167.625 171.851562 167.65625 172.019531 167.691406 C 172.183594 167.726562 172.320312 167.792969 172.417969 167.894531 C 172.519531 167.992188 172.617188 168.058594 172.6875 168.058594 C 172.753906 168.058594 172.886719 168.09375 172.984375 168.195312 C 173.085938 168.296875 173.21875 168.328125 173.351562 168.328125 C 173.488281 168.328125 173.554688 168.363281 173.621094 168.429688 C 173.652344 168.496094 173.71875 168.53125 173.886719 168.53125 C 173.953125 168.53125 174.019531 168.53125 174.085938 168.53125 C 174.085938 168.5625 174.085938 168.5625 174.085938 168.597656 C 174.085938 168.628906 174.152344 168.664062 174.253906 168.664062 C 174.355469 168.699219 174.453125 168.730469 174.488281 168.796875 C 174.519531 168.832031 174.519531 168.867188 174.554688 168.898438 C 174.585938 168.898438 174.585938 168.867188 174.585938 168.867188 C 174.621094 168.832031 174.6875 168.867188 174.722656 168.898438 C 174.789062 168.964844 174.921875 168.964844 175.089844 168.964844 C 175.253906 168.964844 175.386719 169 175.488281 169.066406 C 175.589844 169.132812 175.6875 169.167969 175.789062 169.132812 C 175.890625 169.101562 176.054688 169.167969 176.324219 169.269531 C 176.589844 169.367188 176.789062 169.4375 176.988281 169.4375 C 177.191406 169.4375 177.355469 169.4375 177.457031 169.402344 C 177.558594 169.367188 177.65625 169.367188 177.757812 169.402344 C 177.855469 169.4375 177.925781 169.46875 177.925781 169.503906 C 177.925781 169.535156 177.925781 169.535156 177.925781 169.570312 C 178.023438 169.535156 178.125 169.535156 178.257812 169.503906 C 178.492188 169.46875 178.726562 169.46875 178.957031 169.570312 C 179.226562 169.636719 179.390625 169.636719 179.492188 169.605469 C 179.59375 169.535156 179.726562 169.535156 179.925781 169.570312 C 180.125 169.605469 180.226562 169.605469 180.292969 169.535156 C 180.359375 169.503906 180.425781 169.46875 180.492188 169.46875 C 180.558594 169.46875 180.761719 169.503906 180.992188 169.535156 C 181.261719 169.605469 181.359375 169.605469 181.394531 169.570312 C 181.425781 169.535156 181.492188 169.503906 181.59375 169.503906 C 181.695312 169.503906 181.859375 169.46875 181.996094 169.402344 C 182.128906 169.335938 182.261719 169.300781 182.292969 169.367188 C 182.363281 169.402344 182.429688 169.402344 182.5625 169.367188 C 182.695312 169.335938 182.761719 169.300781 182.761719 169.269531 C 182.761719 169.234375 182.761719 169.234375 182.761719 169.234375 C 182.828125 169.234375 182.894531 169.234375 182.960938 169.234375 C 183.09375 169.234375 183.195312 169.199219 183.296875 169.132812 C 183.394531 169.066406 183.460938 169.035156 183.5625 169.066406 C 183.664062 169.101562 183.730469 169.066406 183.761719 169.035156 C 183.796875 169 183.894531 168.964844 184.03125 168.964844 C 184.164062 168.964844 184.332031 168.898438 184.53125 168.796875 C 184.730469 168.699219 184.964844 168.597656 185.265625 168.5625 C 185.566406 168.53125 185.730469 168.464844 185.832031 168.363281 C 185.929688 168.261719 186 168.195312 186.132812 168.195312 C 186.265625 168.195312 186.398438 168.09375 186.597656 167.894531 C 186.800781 167.691406 187.066406 167.523438 187.433594 167.421875 C 187.765625 167.324219 187.96875 167.222656 187.96875 167.121094 C 188 167.019531 188.035156 166.953125 188.101562 166.886719 C 188.167969 166.820312 188.300781 166.753906 188.5 166.617188 C 188.699219 166.484375 188.800781 166.417969 188.835938 166.351562 C 188.835938 166.28125 188.933594 166.214844 189.101562 166.113281 C 189.234375 166.015625 189.433594 165.847656 189.703125 165.511719 C 189.96875 165.210938 190.167969 164.972656 190.371094 164.875 C 190.535156 164.773438 190.734375 164.570312 190.902344 164.335938 C 191.070312 164.101562 191.167969 163.96875 191.167969 163.867188 C 191.167969 163.800781 191.203125 163.734375 191.304688 163.632812 C 191.402344 163.53125 191.4375 163.464844 191.46875 163.363281 C 191.46875 163.265625 191.570312 163.195312 191.703125 163.097656 C 191.835938 162.996094 191.9375 162.859375 191.96875 162.695312 C 192.003906 162.527344 192.070312 162.425781 192.136719 162.359375 C 192.203125 162.289062 192.269531 162.125 192.335938 161.855469 C 192.40625 161.554688 192.472656 161.386719 192.539062 161.285156 C 192.605469 161.183594 192.636719 161.148438 192.570312 161.082031 C 192.539062 161.015625 192.605469 160.882812 192.738281 160.679688 C 192.90625 160.480469 192.9375 160.3125 192.9375 160.246094 C 192.90625 160.175781 192.9375 160.109375 192.972656 160.109375 C 193.003906 160.078125 193.039062 159.976562 193.003906 159.773438 C 193.003906 159.574219 193.003906 159.507812 193.039062 159.472656 C 193.105469 159.441406 193.105469 159.238281 193.105469 158.835938 C 193.105469 158.433594 193.136719 158.097656 193.207031 157.898438 C 193.273438 157.695312 193.304688 157.492188 193.238281 157.328125 C 193.207031 157.125 193.207031 156.957031 193.238281 156.757812 C 193.273438 156.554688 193.273438 156.421875 193.238281 156.355469 C 193.207031 156.285156 193.207031 156.1875 193.207031 156.050781 C 193.238281 155.917969 193.207031 155.851562 193.171875 155.816406 C 193.136719 155.816406 193.136719 155.785156 193.105469 155.785156 C 193.136719 155.785156 193.136719 155.785156 193.171875 155.75 C 193.207031 155.714844 193.207031 155.617188 193.207031 155.378906 C 193.207031 155.179688 193.171875 155.011719 193.070312 154.945312 C 192.972656 154.878906 192.9375 154.777344 192.972656 154.675781 C 193.003906 154.542969 192.972656 154.441406 192.9375 154.375 C 192.90625 154.308594 192.871094 154.242188 192.90625 154.171875 C 192.90625 154.105469 192.90625 154.074219 192.871094 154.039062 C 192.839844 154.003906 192.769531 153.835938 192.769531 153.570312 C 192.769531 153.300781 192.703125 153.101562 192.605469 152.933594 C 192.503906 152.796875 192.472656 152.664062 192.472656 152.53125 C 192.472656 152.394531 192.40625 152.226562 192.269531 151.992188 C 192.136719 151.757812 192.070312 151.589844 192.105469 151.523438 C 192.105469 151.488281 192.105469 151.421875 192.039062 151.390625 C 192.003906 151.320312 191.9375 151.1875 191.902344 150.917969 C 191.871094 150.652344 191.804688 150.550781 191.769531 150.550781 C 191.738281 150.550781 191.671875 150.449219 191.605469 150.28125 C 191.535156 150.113281 191.4375 150.015625 191.371094 149.980469 C 191.304688 149.945312 191.269531 149.878906 191.269531 149.847656 C 191.269531 149.777344 191.203125 149.710938 191.070312 149.609375 C 190.9375 149.511719 190.804688 149.375 190.734375 149.207031 C 190.636719 149.007812 190.570312 148.941406 190.535156 148.941406 C 190.503906 148.941406 190.503906 148.941406 190.503906 148.972656 C 190.46875 148.90625 190.4375 148.839844 190.4375 148.773438 C 190.402344 148.636719 190.269531 148.503906 190.136719 148.402344 C 189.96875 148.304688 189.867188 148.136719 189.769531 147.96875 C 189.667969 147.765625 189.402344 147.464844 189 147.09375 C 188.566406 146.691406 188.332031 146.425781 188.234375 146.289062 C 188.132812 146.121094 188 146.023438 187.832031 145.921875 C 187.667969 145.820312 187.53125 145.71875 187.433594 145.585938 C 187.332031 145.453125 187.199219 145.351562 187 145.285156 C 186.832031 145.21875 186.699219 145.148438 186.632812 145.015625 C 186.566406 144.914062 186.5 144.882812 186.464844 144.882812 C 186.433594 144.914062 186.398438 144.882812 186.367188 144.8125 C 186.332031 144.78125 186.265625 144.714844 186.164062 144.714844 C 186.066406 144.679688 186 144.648438 185.964844 144.578125 C 185.929688 144.511719 185.699219 144.378906 185.332031 144.210938 C 184.929688 144.007812 184.730469 143.910156 184.730469 143.875 C 184.730469 143.839844 184.730469 143.839844 184.730469 143.808594 C 184.695312 143.808594 184.628906 143.808594 184.597656 143.808594 C 184.496094 143.808594 184.429688 143.742188 184.296875 143.574219 C 184.164062 143.4375 183.929688 143.304688 183.53125 143.269531 C 183.128906 143.238281 182.929688 143.171875 182.929688 143.136719 C 182.929688 143.136719 182.929688 143.105469 182.929688 143.105469 C 182.894531 143.105469 182.894531 143.105469 182.863281 143.136719 C 182.796875 143.171875 182.761719 143.136719 182.730469 143.105469 C 182.695312 143.070312 182.628906 143.070312 182.59375 143.070312 C 182.527344 143.105469 182.429688 143.035156 182.292969 142.9375 C 182.160156 142.835938 182.027344 142.800781 181.929688 142.800781 C 181.828125 142.800781 181.726562 142.769531 181.726562 142.734375 C 181.695312 142.699219 181.660156 142.699219 181.5625 142.734375 C 181.460938 142.769531 181.359375 142.769531 181.261719 142.667969 C 181.160156 142.601562 180.960938 142.566406 180.691406 142.566406 C 180.425781 142.566406 180.292969 142.535156 180.257812 142.5 C 180.226562 142.464844 180.09375 142.433594 179.792969 142.433594 C 179.527344 142.433594 179.359375 142.398438 179.292969 142.367188 C 179.257812 142.332031 179.125 142.332031 178.957031 142.332031 C 178.757812 142.332031 178.65625 142.332031 178.625 142.265625 C 178.589844 142.199219 178.523438 142.199219 178.492188 142.199219 C 178.457031 142.199219 178.15625 142.433594 177.957031 142.5 Z M 117.601562 143.238281 C 117.367188 143.304688 117.132812 143.339844 116.898438 143.304688 C 116.664062 143.269531 116.5 143.304688 116.433594 143.371094 C 116.367188 143.4375 116.300781 143.472656 116.265625 143.4375 C 116.230469 143.40625 116.132812 143.371094 116 143.371094 C 115.863281 143.371094 115.664062 143.40625 115.429688 143.507812 C 115.199219 143.605469 115.03125 143.605469 114.898438 143.574219 C 114.765625 143.507812 114.699219 143.507812 114.699219 143.539062 C 114.699219 143.574219 114.597656 143.605469 114.464844 143.605469 C 114.332031 143.605469 114.230469 143.640625 114.195312 143.707031 C 114.164062 143.773438 114.0625 143.773438 113.929688 143.773438 C 113.796875 143.773438 113.628906 143.808594 113.496094 143.910156 C 113.328125 144.042969 113.261719 144.078125 113.230469 144.042969 C 113.195312 144.007812 113.097656 144.007812 112.929688 144.007812 C 112.761719 144.007812 112.664062 144.078125 112.628906 144.109375 C 112.59375 144.144531 112.527344 144.210938 112.394531 144.210938 C 112.261719 144.242188 112.160156 144.277344 112.09375 144.378906 C 112.027344 144.480469 111.929688 144.480469 111.894531 144.480469 C 111.863281 144.480469 111.828125 144.480469 111.828125 144.445312 C 111.828125 144.445312 111.828125 144.480469 111.828125 144.511719 C 111.828125 144.511719 111.828125 144.546875 111.828125 144.546875 C 111.792969 144.546875 111.761719 144.546875 111.726562 144.546875 C 111.695312 144.546875 111.660156 144.546875 111.628906 144.546875 C 111.628906 144.578125 111.628906 144.578125 111.628906 144.613281 C 111.628906 144.648438 111.628906 144.648438 111.628906 144.679688 C 111.59375 144.679688 111.5625 144.679688 111.527344 144.679688 C 111.496094 144.679688 111.460938 144.679688 111.425781 144.679688 C 111.425781 144.714844 111.425781 144.714844 111.425781 144.746094 C 111.425781 144.78125 111.359375 144.847656 111.226562 144.882812 C 111.09375 144.949219 110.960938 144.980469 110.894531 144.949219 C 110.828125 144.949219 110.792969 144.949219 110.726562 144.914062 C 110.726562 144.949219 110.726562 144.949219 110.726562 144.980469 C 110.726562 145.015625 110.660156 145.050781 110.558594 145.050781 C 110.460938 145.050781 110.394531 145.117188 110.292969 145.183594 C 110.191406 145.25 110.058594 145.351562 109.792969 145.453125 C 109.527344 145.550781 109.359375 145.652344 109.292969 145.789062 C 109.226562 145.921875 109.09375 146.023438 108.859375 146.089844 C 108.625 146.15625 108.457031 146.257812 108.390625 146.355469 C 108.324219 146.457031 108.222656 146.558594 108.125 146.59375 C 107.992188 146.625 107.925781 146.726562 107.859375 146.859375 C 107.789062 146.996094 107.691406 147.09375 107.589844 147.128906 C 107.457031 147.195312 107.222656 147.398438 106.855469 147.765625 C 106.488281 148.136719 106.257812 148.4375 106.1875 148.636719 C 106.121094 148.839844 105.988281 149.007812 105.789062 149.175781 C 105.589844 149.34375 105.488281 149.445312 105.488281 149.476562 C 105.488281 149.511719 105.421875 149.609375 105.320312 149.777344 C 105.222656 149.945312 105.15625 150.046875 105.15625 150.113281 C 105.15625 150.179688 105.121094 150.214844 105.023438 150.25 C 104.921875 150.28125 104.886719 150.347656 104.886719 150.449219 C 104.886719 150.550781 104.855469 150.617188 104.789062 150.652344 C 104.722656 150.683594 104.65625 150.785156 104.621094 150.988281 C 104.585938 151.1875 104.488281 151.320312 104.355469 151.457031 C 104.222656 151.589844 104.152344 151.824219 104.085938 152.195312 C 104.054688 152.5625 103.953125 152.796875 103.855469 152.933594 C 103.753906 153.066406 103.6875 153.199219 103.652344 153.367188 C 103.621094 153.503906 103.585938 153.738281 103.585938 154.039062 C 103.585938 154.339844 103.519531 154.574219 103.453125 154.742188 C 103.386719 154.910156 103.351562 155.078125 103.386719 155.28125 C 103.421875 155.480469 103.421875 155.617188 103.386719 155.714844 C 103.351562 155.816406 103.351562 155.882812 103.386719 155.917969 C 103.421875 155.949219 103.421875 156.1875 103.386719 156.519531 C 103.351562 156.855469 103.351562 157.058594 103.386719 157.058594 C 103.386719 157.058594 103.421875 157.089844 103.421875 157.089844 C 103.421875 157.089844 103.386719 157.125 103.386719 157.125 C 103.351562 157.125 103.386719 157.292969 103.453125 157.5625 C 103.554688 157.863281 103.585938 158.164062 103.585938 158.5 C 103.621094 158.835938 103.621094 159.003906 103.6875 159.039062 C 103.71875 159.070312 103.753906 159.136719 103.753906 159.238281 C 103.753906 159.339844 103.785156 159.40625 103.855469 159.441406 C 103.921875 159.472656 103.953125 159.574219 103.988281 159.773438 C 103.988281 159.976562 104.019531 160.144531 104.085938 160.3125 C 104.152344 160.480469 104.1875 160.613281 104.253906 160.679688 C 104.320312 160.746094 104.355469 160.882812 104.386719 161.050781 C 104.421875 161.21875 104.421875 161.316406 104.453125 161.316406 C 104.488281 161.316406 104.554688 161.417969 104.65625 161.621094 C 104.753906 161.820312 104.820312 161.921875 104.886719 161.957031 C 104.953125 161.957031 104.988281 162.054688 104.988281 162.222656 C 104.988281 162.390625 105.121094 162.59375 105.289062 162.828125 C 105.457031 163.0625 105.589844 163.164062 105.65625 163.164062 C 105.722656 163.164062 105.789062 163.230469 105.824219 163.363281 C 105.855469 163.5 105.988281 163.632812 106.15625 163.734375 C 106.324219 163.832031 106.390625 163.933594 106.390625 163.96875 C 106.390625 164 106.390625 164 106.355469 164 C 106.390625 164 106.390625 164.035156 106.421875 164.035156 C 106.457031 164.070312 106.554688 164.167969 106.691406 164.371094 C 106.789062 164.570312 106.921875 164.738281 107.058594 164.839844 C 107.191406 164.941406 107.257812 165.007812 107.289062 165.109375 C 107.289062 165.175781 107.425781 165.308594 107.65625 165.542969 C 107.890625 165.78125 107.992188 165.914062 107.992188 165.949219 C 107.992188 166.015625 108.058594 166.046875 108.15625 166.082031 C 108.257812 166.148438 108.324219 166.214844 108.390625 166.28125 C 108.457031 166.382812 108.523438 166.417969 108.589844 166.417969 C 108.660156 166.417969 108.757812 166.515625 108.859375 166.617188 C 108.957031 166.71875 109.058594 166.820312 109.125 166.820312 C 109.226562 166.851562 109.292969 166.921875 109.390625 167.054688 C 109.492188 167.1875 109.625 167.289062 109.726562 167.324219 C 109.859375 167.390625 109.960938 167.457031 110.058594 167.589844 C 110.160156 167.726562 110.328125 167.824219 110.59375 167.925781 C 110.859375 168.027344 111.0625 168.128906 111.195312 168.296875 C 111.328125 168.429688 111.460938 168.496094 111.628906 168.5625 C 111.792969 168.597656 111.894531 168.664062 111.960938 168.699219 C 112.027344 168.765625 112.09375 168.796875 112.160156 168.796875 C 112.226562 168.796875 112.296875 168.832031 112.328125 168.867188 C 112.363281 168.933594 112.460938 168.964844 112.59375 168.964844 C 112.730469 168.964844 112.894531 169.066406 113.0625 169.167969 C 113.195312 169.269531 113.394531 169.367188 113.628906 169.4375 C 113.863281 169.46875 114.0625 169.570312 114.195312 169.671875 C 114.332031 169.769531 114.628906 169.839844 115.0625 169.9375 C 115.5 170.007812 115.832031 170.074219 116 170.175781 C 116.164062 170.273438 116.367188 170.308594 116.597656 170.339844 C 116.832031 170.339844 117 170.339844 117.066406 170.308594 C 117.167969 170.273438 117.234375 170.308594 117.332031 170.375 C 117.433594 170.441406 117.601562 170.476562 117.800781 170.410156 C 118 170.375 118.234375 170.375 118.566406 170.476562 C 118.867188 170.542969 119.035156 170.542969 119.101562 170.507812 C 119.136719 170.476562 119.167969 170.441406 119.167969 170.441406 C 119.203125 170.476562 119.203125 170.476562 119.234375 170.507812 C 119.269531 170.542969 119.367188 170.542969 119.5 170.542969 C 119.667969 170.542969 119.769531 170.507812 119.800781 170.476562 C 119.867188 170.441406 119.902344 170.410156 120.003906 170.410156 C 120.101562 170.410156 120.136719 170.441406 120.167969 170.441406 C 120.167969 170.476562 120.300781 170.507812 120.535156 170.507812 C 120.769531 170.542969 120.9375 170.507812 121.003906 170.441406 C 121.101562 170.410156 121.171875 170.375 121.238281 170.410156 C 121.304688 170.441406 121.371094 170.410156 121.46875 170.375 C 121.570312 170.308594 121.636719 170.308594 121.738281 170.308594 C 121.835938 170.339844 122.003906 170.308594 122.304688 170.242188 C 122.570312 170.175781 122.738281 170.105469 122.839844 170.039062 C 122.9375 169.972656 123.003906 169.9375 123.105469 169.972656 C 123.207031 170.007812 123.273438 169.972656 123.273438 169.9375 C 123.304688 169.90625 123.371094 169.871094 123.539062 169.871094 C 123.707031 169.839844 123.804688 169.804688 123.90625 169.738281 C 124.007812 169.671875 124.039062 169.636719 124.105469 169.671875 C 124.171875 169.703125 124.207031 169.671875 124.273438 169.605469 C 124.339844 169.535156 124.539062 169.503906 124.839844 169.46875 C 125.140625 169.4375 125.308594 169.367188 125.375 169.269531 C 125.441406 169.167969 125.539062 169.101562 125.675781 169.101562 C 125.808594 169.101562 125.976562 169 126.140625 168.796875 C 126.308594 168.597656 126.574219 168.429688 126.910156 168.328125 C 127.242188 168.226562 127.441406 168.09375 127.542969 167.960938 C 127.644531 167.824219 127.742188 167.691406 127.84375 167.65625 C 127.941406 167.625 128.011719 167.558594 128.011719 167.523438 C 128.011719 167.492188 128.011719 167.492188 128.011719 167.492188 C 128.042969 167.492188 128.078125 167.492188 128.078125 167.523438 C 128.144531 167.558594 128.210938 167.457031 128.308594 167.324219 C 128.410156 167.1875 128.511719 167.085938 128.644531 167.054688 C 128.777344 167.019531 128.945312 166.851562 129.210938 166.515625 C 129.476562 166.183594 129.644531 165.980469 129.746094 165.949219 C 129.84375 165.914062 129.878906 165.847656 129.910156 165.8125 C 129.945312 165.78125 130.011719 165.710938 130.078125 165.710938 C 130.144531 165.710938 130.210938 165.644531 130.246094 165.476562 C 130.3125 165.34375 130.34375 165.242188 130.414062 165.210938 C 130.480469 165.175781 130.546875 165.109375 130.578125 165.074219 C 130.613281 165.042969 130.644531 164.941406 130.644531 164.90625 C 130.613281 164.839844 130.679688 164.773438 130.78125 164.671875 C 130.878906 164.570312 130.914062 164.472656 130.914062 164.402344 C 130.914062 164.335938 130.980469 164.238281 131.113281 164.136719 C 131.246094 164.035156 131.347656 163.96875 131.378906 163.867188 C 131.414062 163.765625 131.445312 163.699219 131.445312 163.632812 C 131.414062 163.566406 131.480469 163.5 131.578125 163.398438 C 131.679688 163.296875 131.746094 163.128906 131.8125 162.859375 C 131.878906 162.59375 131.914062 162.390625 132.015625 162.289062 C 132.046875 162.222656 132.113281 162.191406 132.148438 162.125 C 132.148438 162.125 132.113281 162.089844 132.113281 162.089844 C 132.082031 162.054688 132.082031 162.023438 132.082031 161.921875 C 132.113281 161.820312 132.148438 161.753906 132.179688 161.753906 C 132.214844 161.753906 132.28125 161.6875 132.347656 161.585938 C 132.414062 161.484375 132.449219 161.386719 132.449219 161.316406 C 132.449219 161.285156 132.449219 161.21875 132.449219 161.183594 C 132.480469 161.183594 132.480469 161.183594 132.515625 161.183594 C 132.546875 161.183594 132.546875 161.183594 132.582031 161.183594 C 132.582031 161.082031 132.582031 160.984375 132.582031 160.882812 C 132.582031 160.679688 132.613281 160.546875 132.648438 160.445312 C 132.679688 160.34375 132.714844 160.210938 132.679688 160.011719 C 132.648438 159.808594 132.679688 159.507812 132.78125 159.105469 C 132.882812 158.703125 132.914062 158.433594 132.914062 158.300781 C 132.882812 158.164062 132.882812 158.097656 132.847656 158.0625 C 132.816406 158.03125 132.816406 157.964844 132.882812 157.828125 C 132.949219 157.695312 132.949219 157.5625 132.882812 157.394531 C 132.816406 157.257812 132.816406 157.160156 132.847656 157.125 C 132.882812 157.089844 132.882812 157.023438 132.847656 156.957031 C 132.816406 156.890625 132.816406 156.757812 132.847656 156.589844 C 132.882812 156.421875 132.847656 156.285156 132.78125 156.117188 C 132.714844 155.949219 132.648438 155.75 132.613281 155.480469 C 132.582031 155.214844 132.546875 155.078125 132.480469 155.011719 C 132.414062 154.945312 132.414062 154.8125 132.414062 154.609375 C 132.414062 154.40625 132.378906 154.242188 132.3125 154.074219 C 132.246094 153.90625 132.214844 153.804688 132.179688 153.804688 C 132.148438 153.804688 132.113281 153.671875 132.082031 153.433594 C 132.046875 153.199219 131.980469 153 131.878906 152.898438 C 131.78125 152.765625 131.714844 152.628906 131.714844 152.53125 C 131.679688 152.394531 131.679688 152.363281 131.648438 152.363281 C 131.613281 152.363281 131.613281 152.363281 131.578125 152.363281 C 131.578125 152.328125 131.613281 152.261719 131.613281 152.226562 C 131.648438 152.128906 131.613281 152.09375 131.578125 152.09375 C 131.546875 152.09375 131.511719 151.960938 131.445312 151.757812 C 131.378906 151.558594 131.347656 151.421875 131.3125 151.390625 C 131.28125 151.355469 131.246094 151.320312 131.179688 151.320312 C 131.113281 151.320312 131.078125 151.289062 131.046875 151.1875 C 131.011719 151.085938 130.980469 151.054688 130.945312 151.054688 C 130.945312 151.054688 130.914062 151.054688 130.914062 151.054688 C 130.914062 151.019531 130.914062 150.988281 130.914062 150.953125 C 130.914062 150.886719 130.78125 150.75 130.546875 150.515625 C 130.3125 150.28125 130.144531 150.082031 130.078125 149.914062 C 130.011719 149.746094 129.910156 149.609375 129.84375 149.609375 C 129.777344 149.609375 129.746094 149.542969 129.710938 149.476562 C 129.679688 149.375 129.613281 149.277344 129.410156 149.074219 C 129.210938 148.875 129.109375 148.707031 129.011719 148.539062 C 128.910156 148.371094 128.777344 147.96875 128.710938 147.96875 C 128.644531 147.933594 128.578125 147.902344 128.511719 147.800781 C 128.445312 147.699219 128.34375 147.632812 128.242188 147.566406 C 128.144531 147.53125 127.976562 147.363281 127.808594 147.128906 C 127.609375 146.894531 127.476562 146.761719 127.410156 146.761719 C 127.34375 146.761719 127.242188 146.691406 127.140625 146.523438 C 127.042969 146.355469 126.84375 146.222656 126.574219 146.089844 C 126.308594 145.953125 126.109375 145.820312 125.941406 145.652344 C 125.773438 145.519531 125.609375 145.382812 125.40625 145.316406 C 125.207031 145.25 125.105469 145.183594 125.105469 145.148438 C 125.105469 145.117188 125.105469 145.117188 125.105469 145.082031 C 125.074219 145.082031 125.007812 145.082031 124.972656 145.082031 C 124.875 145.082031 124.808594 145.050781 124.707031 144.949219 C 124.605469 144.847656 124.472656 144.78125 124.238281 144.714844 C 124.007812 144.648438 123.839844 144.546875 123.738281 144.378906 C 123.640625 144.242188 123.503906 144.144531 123.339844 144.144531 C 123.171875 144.144531 122.972656 144.109375 122.738281 144.078125 C 122.503906 144.042969 122.371094 143.976562 122.371094 143.941406 C 122.339844 143.910156 122.304688 143.910156 122.269531 143.910156 C 122.238281 143.910156 122.171875 143.910156 122.171875 143.875 C 122.136719 143.839844 122.105469 143.839844 122.039062 143.839844 C 121.972656 143.875 121.902344 143.839844 121.804688 143.773438 C 121.703125 143.707031 121.636719 143.671875 121.570312 143.671875 C 121.539062 143.671875 121.503906 143.671875 121.46875 143.671875 C 121.46875 143.671875 121.46875 143.640625 121.46875 143.640625 C 121.46875 143.605469 121.46875 143.605469 121.46875 143.574219 C 121.335938 143.574219 121.203125 143.574219 121.101562 143.574219 C 120.835938 143.574219 120.667969 143.539062 120.601562 143.472656 C 120.503906 143.40625 120.402344 143.371094 120.269531 143.40625 C 120.136719 143.4375 120.003906 143.4375 119.902344 143.40625 C 119.769531 143.371094 119.703125 143.371094 119.703125 143.339844 C 119.703125 143.304688 119.535156 143.269531 119.234375 143.269531 C 118.933594 143.269531 118.769531 143.238281 118.734375 143.203125 C 118.703125 143.171875 118.601562 143.171875 118.402344 143.171875 C 118.234375 143.171875 118.101562 143.171875 118.035156 143.105469 C 117.96875 143.035156 117.832031 143.171875 117.601562 143.238281 Z M 160.539062 154.609375 C 160.609375 154.742188 160.640625 154.910156 160.707031 155.046875 C 160.808594 155.347656 160.808594 155.648438 160.742188 155.917969 C 160.675781 156.21875 160.675781 156.386719 160.707031 156.519531 C 160.742188 156.65625 160.773438 156.789062 160.773438 156.992188 C 160.773438 157.191406 160.742188 157.359375 160.707031 157.492188 C 160.640625 157.628906 160.640625 157.898438 160.640625 158.265625 C 160.675781 158.632812 160.640625 158.871094 160.574219 158.9375 C 160.507812 159.003906 160.441406 159.203125 160.375 159.507812 C 160.308594 159.808594 160.242188 160.042969 160.105469 160.144531 C 159.972656 160.246094 159.972656 160.378906 159.972656 160.546875 C 159.972656 160.714844 159.972656 160.816406 159.941406 160.847656 C 159.875 160.882812 159.839844 160.949219 159.839844 161.050781 C 159.839844 161.152344 159.773438 161.21875 159.671875 161.285156 C 159.574219 161.316406 159.507812 161.453125 159.441406 161.652344 C 159.375 161.855469 159.339844 161.957031 159.273438 161.988281 C 159.207031 162.023438 159.171875 162.125 159.140625 162.257812 C 159.140625 162.390625 159.039062 162.527344 158.871094 162.695312 C 158.738281 162.828125 158.640625 162.960938 158.605469 163.0625 C 158.574219 163.164062 158.503906 163.195312 158.371094 163.265625 C 158.273438 163.332031 158.207031 163.363281 158.207031 163.429688 C 158.207031 163.5 158.171875 163.566406 158.070312 163.699219 C 157.972656 163.800781 157.90625 163.867188 157.804688 163.867188 C 157.703125 163.867188 157.570312 164 157.335938 164.269531 C 157.105469 164.539062 156.9375 164.671875 156.804688 164.738281 C 156.671875 164.773438 156.605469 164.839844 156.605469 164.941406 C 156.605469 165.042969 156.535156 165.074219 156.46875 165.109375 C 156.371094 165.140625 156.335938 165.210938 156.335938 165.242188 C 156.335938 165.277344 156.304688 165.34375 156.238281 165.34375 C 156.203125 165.34375 156.136719 165.378906 156.136719 165.410156 C 156.136719 165.476562 155.96875 165.542969 155.703125 165.679688 C 155.402344 165.8125 155.269531 165.878906 155.234375 165.847656 C 155.203125 165.8125 155.136719 165.878906 155.070312 165.980469 C 155.003906 166.082031 154.835938 166.148438 154.601562 166.214844 C 154.367188 166.25 154.234375 166.316406 154.234375 166.351562 C 154.234375 166.382812 154.167969 166.449219 154.066406 166.449219 C 153.96875 166.484375 153.933594 166.484375 153.933594 166.515625 C 153.933594 166.550781 153.933594 166.550781 153.933594 166.585938 C 153.902344 166.585938 153.902344 166.550781 153.867188 166.550781 C 153.800781 166.515625 153.734375 166.550781 153.632812 166.652344 C 153.535156 166.753906 153.367188 166.785156 153.101562 166.820312 C 152.832031 166.851562 152.632812 166.921875 152.5 166.988281 C 152.367188 167.054688 152.234375 167.085938 152.132812 167.054688 C 152.03125 167.019531 151.964844 167.019531 151.933594 167.054688 C 151.898438 167.085938 151.800781 167.085938 151.566406 167.085938 C 151.367188 167.054688 151.199219 167.121094 151.066406 167.222656 C 150.933594 167.324219 150.832031 167.355469 150.730469 167.355469 C 150.632812 167.355469 150.597656 167.355469 150.597656 167.390625 C 150.566406 167.421875 150.429688 167.421875 150.199219 167.355469 C 149.964844 167.289062 149.730469 167.289062 149.496094 167.324219 C 149.261719 167.355469 149.164062 167.390625 149.128906 167.421875 C 149.097656 167.457031 149.0625 167.457031 148.996094 167.457031 C 148.929688 167.457031 148.898438 167.457031 148.863281 167.492188 C 148.863281 167.523438 148.828125 167.523438 148.828125 167.523438 C 148.828125 167.523438 148.796875 167.492188 148.796875 167.492188 C 148.761719 167.457031 148.664062 167.457031 148.496094 167.457031 C 148.328125 167.457031 148.128906 167.421875 147.960938 167.390625 C 147.863281 167.355469 147.796875 167.355469 147.695312 167.324219 C 147.863281 167.324219 147.996094 167.355469 148.164062 167.355469 C 148.460938 167.355469 148.695312 167.355469 148.761719 167.289062 C 148.863281 167.253906 149.0625 167.1875 149.398438 167.15625 C 149.730469 167.121094 149.929688 167.085938 150.03125 167.019531 C 150.132812 166.988281 150.199219 166.953125 150.332031 166.953125 C 150.464844 166.953125 150.53125 166.921875 150.597656 166.851562 C 150.664062 166.785156 150.730469 166.753906 150.863281 166.785156 C 151 166.820312 151.066406 166.785156 151.132812 166.753906 C 151.230469 166.683594 151.296875 166.683594 151.398438 166.683594 C 151.5 166.683594 151.664062 166.617188 151.867188 166.515625 C 152.097656 166.382812 152.234375 166.351562 152.300781 166.382812 C 152.332031 166.382812 152.367188 166.382812 152.398438 166.417969 C 152.398438 166.382812 152.398438 166.382812 152.398438 166.351562 C 152.398438 166.316406 152.5 166.28125 152.667969 166.28125 C 152.832031 166.28125 153 166.214844 153.101562 166.113281 C 153.199219 166.015625 153.335938 165.945312 153.46875 165.945312 C 153.601562 165.945312 153.734375 165.878906 153.835938 165.8125 C 153.933594 165.746094 153.96875 165.679688 153.96875 165.613281 C 153.96875 165.578125 153.96875 165.578125 153.96875 165.542969 C 154 165.542969 154.035156 165.542969 154.066406 165.542969 C 154.136719 165.542969 154.269531 165.476562 154.433594 165.378906 C 154.636719 165.277344 154.769531 165.175781 154.902344 165.175781 C 155.035156 165.140625 155.167969 165.042969 155.335938 164.808594 C 155.503906 164.570312 155.667969 164.4375 155.871094 164.371094 C 156.070312 164.304688 156.171875 164.238281 156.171875 164.101562 C 156.203125 164 156.269531 163.933594 156.371094 163.902344 C 156.503906 163.867188 156.605469 163.765625 156.738281 163.632812 C 156.871094 163.464844 156.9375 163.363281 156.9375 163.332031 C 156.9375 163.296875 156.9375 163.296875 156.9375 163.265625 C 156.972656 163.265625 156.972656 163.265625 156.972656 163.296875 C 157.003906 163.296875 157.003906 163.332031 157.039062 163.332031 C 157.039062 163.296875 157.070312 163.265625 157.070312 163.230469 C 157.105469 163.164062 157.136719 163.128906 157.203125 163.097656 C 157.269531 163.0625 157.335938 163.027344 157.335938 162.960938 C 157.371094 162.859375 157.40625 162.828125 157.472656 162.828125 C 157.539062 162.828125 157.570312 162.792969 157.605469 162.726562 C 157.636719 162.660156 157.703125 162.625 157.773438 162.59375 C 157.839844 162.558594 157.90625 162.457031 157.972656 162.324219 C 158.039062 162.191406 158.105469 162.089844 158.238281 161.988281 C 158.371094 161.886719 158.40625 161.820312 158.371094 161.753906 C 158.371094 161.6875 158.40625 161.585938 158.503906 161.484375 C 158.605469 161.386719 158.671875 161.285156 158.671875 161.21875 C 158.671875 161.183594 158.707031 161.117188 158.773438 161.015625 C 158.839844 160.914062 158.90625 160.882812 158.9375 160.882812 C 158.972656 160.882812 159.039062 160.78125 159.105469 160.613281 C 159.171875 160.414062 159.238281 160.277344 159.339844 160.210938 C 159.441406 160.144531 159.507812 159.941406 159.605469 159.605469 C 159.707031 159.273438 159.738281 159.105469 159.773438 159.105469 C 159.808594 159.105469 159.808594 159.070312 159.839844 159.070312 C 159.808594 159.039062 159.808594 159.003906 159.773438 158.96875 C 159.773438 158.9375 159.738281 158.902344 159.738281 158.871094 C 159.773438 158.871094 159.773438 158.871094 159.773438 158.871094 C 159.808594 158.871094 159.90625 158.734375 160.039062 158.433594 C 160.175781 158.164062 160.242188 157.964844 160.242188 157.828125 C 160.207031 157.695312 160.242188 157.5625 160.308594 157.359375 C 160.375 157.160156 160.40625 156.855469 160.40625 156.488281 C 160.40625 156.085938 160.441406 155.851562 160.507812 155.714844 C 160.574219 155.582031 160.609375 155.378906 160.574219 155.113281 C 160.574219 154.878906 160.539062 154.742188 160.539062 154.609375 Z M 190.96875 154.710938 C 191.003906 154.84375 191.070312 155.011719 191.101562 155.144531 C 191.203125 155.414062 191.238281 155.683594 191.171875 155.917969 C 191.101562 156.152344 191.136719 156.453125 191.171875 156.789062 C 191.203125 157.125 191.203125 157.359375 191.171875 157.460938 C 191.136719 157.5625 191.101562 157.828125 191.101562 158.265625 C 191.101562 158.703125 191.070312 158.96875 190.96875 159.070312 C 190.871094 159.171875 190.835938 159.304688 190.835938 159.507812 C 190.835938 159.605469 190.835938 159.675781 190.835938 159.773438 C 190.835938 159.773438 190.804688 159.773438 190.804688 159.773438 C 190.769531 159.773438 190.703125 159.875 190.667969 160.078125 C 190.601562 160.277344 190.535156 160.378906 190.503906 160.378906 C 190.503906 160.378906 190.46875 160.378906 190.46875 160.378906 C 190.46875 160.445312 190.46875 160.511719 190.46875 160.613281 C 190.46875 160.78125 190.4375 160.882812 190.402344 160.914062 C 190.371094 160.949219 190.300781 161.050781 190.300781 161.152344 C 190.269531 161.25 190.234375 161.316406 190.136719 161.417969 C 190.035156 161.484375 189.96875 161.585938 189.933594 161.753906 C 189.902344 161.886719 189.835938 161.988281 189.769531 162.023438 C 189.703125 162.054688 189.667969 162.15625 189.636719 162.289062 C 189.636719 162.425781 189.570312 162.527344 189.5 162.558594 C 189.433594 162.59375 189.367188 162.695312 189.335938 162.792969 C 189.300781 162.894531 189.234375 162.960938 189.203125 162.960938 C 189.132812 162.996094 189.101562 163.027344 189.066406 163.097656 C 189.035156 163.164062 188.96875 163.230469 188.867188 163.296875 C 188.734375 163.363281 188.699219 163.429688 188.667969 163.53125 C 188.667969 163.632812 188.601562 163.699219 188.5 163.800781 C 188.402344 163.902344 188.300781 163.96875 188.199219 164 C 188.101562 164.035156 188.035156 164.070312 188.035156 164.136719 C 188.035156 164.167969 188 164.167969 188 164.203125 C 188 164.203125 187.96875 164.167969 187.96875 164.167969 C 187.933594 164.167969 187.933594 164.167969 187.933594 164.136719 C 187.898438 164.203125 187.867188 164.238281 187.867188 164.269531 C 187.832031 164.371094 187.765625 164.4375 187.699219 164.4375 C 187.632812 164.472656 187.601562 164.503906 187.566406 164.570312 C 187.53125 164.640625 187.464844 164.671875 187.367188 164.707031 C 187.265625 164.738281 187.132812 164.875 187 165.074219 C 186.867188 165.277344 186.765625 165.410156 186.699219 165.410156 C 186.664062 165.410156 186.632812 165.410156 186.597656 165.410156 C 186.597656 165.410156 186.597656 165.445312 186.597656 165.445312 C 186.597656 165.476562 186.53125 165.511719 186.433594 165.542969 C 186.296875 165.578125 186.230469 165.613281 186.199219 165.679688 C 186.164062 165.710938 186.097656 165.78125 185.964844 165.78125 C 185.832031 165.78125 185.765625 165.847656 185.664062 165.945312 C 185.566406 166.046875 185.429688 166.148438 185.199219 166.214844 C 184.964844 166.316406 184.832031 166.351562 184.765625 166.316406 C 184.730469 166.316406 184.730469 166.28125 184.695312 166.28125 C 184.695312 166.316406 184.664062 166.316406 184.664062 166.351562 C 184.664062 166.417969 184.53125 166.449219 184.332031 166.515625 C 184.097656 166.585938 183.996094 166.617188 183.996094 166.652344 C 183.996094 166.683594 183.964844 166.71875 183.863281 166.753906 C 183.761719 166.785156 183.664062 166.785156 183.53125 166.785156 C 183.394531 166.785156 183.230469 166.851562 182.996094 166.921875 C 182.761719 167.019531 182.628906 167.054688 182.59375 167.019531 C 182.527344 166.988281 182.496094 166.988281 182.429688 167.019531 C 182.394531 167.054688 182.226562 167.085938 181.996094 167.085938 C 181.761719 167.085938 181.5625 167.121094 181.425781 167.222656 C 181.292969 167.324219 181.058594 167.355469 180.761719 167.289062 C 180.460938 167.253906 180.226562 167.222656 180.160156 167.253906 C 180.058594 167.289062 179.992188 167.289062 179.890625 167.289062 C 179.792969 167.289062 179.726562 167.289062 179.660156 167.355469 C 179.625 167.390625 179.527344 167.457031 179.425781 167.457031 C 179.324219 167.457031 179.257812 167.457031 179.257812 167.421875 C 179.226562 167.390625 179.125 167.390625 178.925781 167.390625 C 178.726562 167.390625 178.589844 167.390625 178.523438 167.355469 C 178.457031 167.324219 178.425781 167.324219 178.425781 167.289062 C 178.425781 167.253906 178.425781 167.253906 178.425781 167.253906 C 178.390625 167.253906 178.324219 167.253906 178.292969 167.253906 C 178.257812 167.253906 178.191406 167.253906 178.15625 167.253906 C 178.191406 167.222656 178.191406 167.222656 178.222656 167.1875 C 178.257812 167.15625 178.324219 167.15625 178.457031 167.222656 C 178.589844 167.253906 178.726562 167.289062 178.890625 167.289062 C 179.058594 167.289062 179.324219 167.253906 179.757812 167.15625 C 180.160156 167.054688 180.394531 167.019531 180.492188 167.019531 C 180.59375 167.019531 180.625 167.019531 180.660156 166.988281 C 180.691406 166.921875 180.761719 166.921875 180.859375 166.921875 C 180.960938 166.921875 181.058594 166.886719 181.160156 166.820312 C 181.261719 166.753906 181.359375 166.71875 181.425781 166.753906 C 181.527344 166.753906 181.5625 166.753906 181.5625 166.71875 C 181.59375 166.683594 181.726562 166.617188 182.027344 166.585938 C 182.292969 166.515625 182.496094 166.449219 182.5625 166.382812 C 182.628906 166.316406 182.796875 166.25 183.09375 166.214844 C 183.363281 166.183594 183.5625 166.113281 183.664062 166.015625 C 183.761719 165.914062 183.894531 165.847656 184.0625 165.8125 C 184.230469 165.78125 184.363281 165.710938 184.398438 165.578125 C 184.464844 165.476562 184.628906 165.34375 184.863281 165.242188 C 185.097656 165.109375 185.296875 165.042969 185.429688 165.042969 C 185.566406 165.042969 185.730469 164.90625 185.863281 164.707031 C 186 164.503906 186.164062 164.371094 186.367188 164.269531 C 186.566406 164.167969 186.664062 164.101562 186.664062 164 C 186.664062 163.902344 186.730469 163.867188 186.867188 163.800781 C 187 163.765625 187.097656 163.667969 187.167969 163.566406 C 187.234375 163.464844 187.300781 163.398438 187.332031 163.398438 C 187.367188 163.398438 187.433594 163.332031 187.5 163.164062 C 187.566406 162.996094 187.632812 162.929688 187.667969 162.929688 C 187.699219 162.929688 187.765625 162.859375 187.832031 162.792969 C 187.898438 162.695312 188 162.59375 188.167969 162.527344 C 188.332031 162.457031 188.433594 162.324219 188.46875 162.191406 C 188.5 162.023438 188.566406 161.957031 188.632812 161.957031 C 188.699219 161.957031 188.734375 161.921875 188.800781 161.820312 C 188.867188 161.71875 188.933594 161.621094 188.96875 161.453125 C 189 161.285156 189.066406 161.183594 189.101562 161.183594 C 189.132812 161.183594 189.203125 161.117188 189.269531 160.984375 C 189.335938 160.847656 189.402344 160.78125 189.433594 160.78125 C 189.46875 160.78125 189.570312 160.679688 189.636719 160.445312 C 189.703125 160.210938 189.800781 160.078125 189.867188 160.042969 C 189.933594 159.976562 190.003906 159.84375 190.035156 159.574219 C 190.101562 159.304688 190.167969 159.136719 190.234375 159.035156 C 190.335938 158.902344 190.335938 158.835938 190.300781 158.769531 C 190.269531 158.703125 190.300781 158.601562 190.46875 158.398438 C 190.601562 158.199219 190.667969 158.0625 190.667969 157.996094 C 190.667969 157.929688 190.703125 157.898438 190.734375 157.863281 C 190.769531 157.828125 190.804688 157.730469 190.769531 157.5625 C 190.769531 157.359375 190.769531 157.257812 190.835938 157.191406 C 190.871094 157.160156 190.902344 156.890625 190.902344 156.421875 C 190.902344 155.984375 190.9375 155.683594 191.003906 155.546875 C 191.070312 155.414062 191.101562 155.214844 191.035156 154.945312 C 191.003906 154.976562 190.96875 154.84375 190.96875 154.710938 Z M 130.546875 155.480469 C 130.578125 155.546875 130.613281 155.617188 130.644531 155.683594 C 130.710938 155.816406 130.746094 155.917969 130.710938 155.984375 C 130.710938 156.050781 130.710938 156.085938 130.746094 156.117188 C 130.78125 156.152344 130.8125 156.253906 130.8125 156.488281 C 130.8125 156.722656 130.78125 156.890625 130.746094 156.957031 C 130.710938 157.023438 130.679688 157.125 130.710938 157.257812 C 130.710938 157.394531 130.746094 157.460938 130.78125 157.492188 C 130.8125 157.527344 130.847656 157.628906 130.847656 157.863281 C 130.847656 158.097656 130.8125 158.265625 130.78125 158.398438 C 130.746094 158.535156 130.710938 158.800781 130.746094 159.171875 C 130.746094 159.574219 130.710938 159.808594 130.613281 159.941406 C 130.511719 160.078125 130.480469 160.175781 130.480469 160.3125 C 130.480469 160.445312 130.480469 160.546875 130.414062 160.648438 C 130.34375 160.746094 130.3125 160.847656 130.277344 160.984375 C 130.277344 161.117188 130.246094 161.152344 130.210938 161.152344 C 130.210938 161.152344 130.179688 161.152344 130.144531 161.152344 C 130.144531 161.183594 130.179688 161.183594 130.179688 161.183594 C 130.179688 161.183594 130.179688 161.21875 130.210938 161.25 C 130.179688 161.25 130.144531 161.25 130.144531 161.285156 C 130.078125 161.316406 130.046875 161.386719 130.046875 161.484375 C 130.046875 161.621094 130.046875 161.6875 130.078125 161.71875 C 130.113281 161.753906 130.078125 161.820312 130.011719 161.921875 C 129.945312 162.023438 129.878906 162.089844 129.910156 162.125 C 129.945312 162.15625 129.878906 162.222656 129.777344 162.289062 C 129.679688 162.359375 129.613281 162.492188 129.542969 162.660156 C 129.511719 162.828125 129.445312 162.929688 129.378906 162.929688 C 129.3125 162.929688 129.277344 162.996094 129.246094 163.164062 C 129.210938 163.296875 129.179688 163.398438 129.144531 163.429688 C 129.078125 163.464844 129.042969 163.53125 129.042969 163.597656 C 129.042969 163.699219 128.976562 163.734375 128.910156 163.765625 C 128.8125 163.800781 128.710938 163.902344 128.542969 164.035156 C 128.410156 164.167969 128.277344 164.335938 128.144531 164.539062 C 128.011719 164.738281 127.875 164.839844 127.710938 164.941406 C 127.507812 165.042969 127.375 165.140625 127.277344 165.308594 C 127.175781 165.476562 127.074219 165.578125 126.941406 165.578125 C 126.808594 165.578125 126.742188 165.644531 126.742188 165.746094 C 126.707031 165.847656 126.640625 165.945312 126.542969 166.082031 C 126.441406 166.214844 126.339844 166.25 126.273438 166.214844 C 126.242188 166.214844 126.242188 166.214844 126.207031 166.183594 C 126.207031 166.214844 126.207031 166.25 126.175781 166.25 C 126.140625 166.28125 126.109375 166.351562 126.007812 166.351562 C 125.90625 166.351562 125.875 166.382812 125.839844 166.449219 C 125.808594 166.515625 125.675781 166.550781 125.472656 166.617188 C 125.273438 166.683594 125.175781 166.753906 125.105469 166.820312 C 125.074219 166.886719 125.007812 166.953125 124.839844 166.988281 C 124.707031 167.019531 124.605469 167.054688 124.574219 167.019531 C 124.539062 167.019531 124.507812 166.988281 124.507812 166.988281 C 124.507812 167.019531 124.507812 167.019531 124.507812 167.019531 C 124.507812 167.054688 124.441406 167.085938 124.339844 167.085938 C 124.238281 167.121094 124.039062 167.1875 123.738281 167.355469 C 123.4375 167.523438 123.207031 167.625 123.070312 167.625 C 123.003906 167.625 122.9375 167.625 122.839844 167.625 C 122.839844 167.65625 122.839844 167.65625 122.839844 167.691406 C 122.839844 167.726562 122.773438 167.757812 122.636719 167.757812 C 122.503906 167.757812 122.40625 167.824219 122.339844 167.859375 C 122.269531 167.894531 122.070312 167.960938 121.738281 167.960938 C 121.402344 167.960938 121.238281 167.960938 121.203125 167.925781 C 121.203125 167.894531 121.203125 167.894531 121.171875 167.859375 C 121.101562 167.925781 121.035156 167.992188 120.9375 168.027344 C 120.804688 168.128906 120.570312 168.160156 120.234375 168.128906 C 119.9375 168.09375 119.570312 168.09375 119.234375 168.195312 C 119.066406 168.226562 118.902344 168.296875 118.703125 168.328125 C 118.703125 168.296875 118.703125 168.296875 118.703125 168.261719 C 118.703125 168.261719 118.703125 168.226562 118.703125 168.226562 C 118.601562 168.226562 118.5 168.226562 118.402344 168.226562 C 118.199219 168.226562 118.035156 168.195312 117.902344 168.160156 C 117.832031 168.128906 117.765625 168.128906 117.699219 168.09375 C 117.765625 168.09375 117.800781 168.058594 117.867188 168.058594 C 118 168.027344 118.066406 168.058594 118.132812 168.09375 C 118.199219 168.128906 118.265625 168.160156 118.402344 168.160156 C 118.535156 168.160156 118.703125 168.128906 118.933594 168.027344 C 119.167969 167.925781 119.402344 167.894531 119.703125 167.859375 C 119.96875 167.859375 120.101562 167.824219 120.101562 167.792969 C 120.101562 167.757812 120.136719 167.726562 120.203125 167.726562 C 120.269531 167.726562 120.335938 167.691406 120.402344 167.726562 C 120.46875 167.757812 120.570312 167.691406 120.667969 167.625 C 120.769531 167.523438 120.9375 167.492188 121.203125 167.492188 C 121.46875 167.492188 121.605469 167.457031 121.636719 167.390625 C 121.671875 167.355469 121.738281 167.324219 121.804688 167.324219 C 121.871094 167.324219 121.972656 167.289062 122.070312 167.1875 C 122.171875 167.085938 122.269531 167.054688 122.339844 167.085938 C 122.40625 167.121094 122.472656 167.085938 122.472656 167.054688 C 122.472656 167.019531 122.503906 167.019531 122.503906 166.988281 C 122.503906 167.019531 122.503906 167.019531 122.539062 167.054688 C 122.570312 167.085938 122.570312 167.085938 122.570312 167.085938 C 122.605469 167.054688 122.605469 167.054688 122.636719 167.019531 C 122.703125 166.953125 122.773438 166.953125 122.90625 166.953125 C 123.039062 166.953125 123.105469 166.921875 123.171875 166.820312 C 123.238281 166.71875 123.371094 166.683594 123.574219 166.617188 C 123.773438 166.585938 123.90625 166.484375 124.007812 166.351562 C 124.105469 166.214844 124.238281 166.082031 124.472656 165.980469 C 124.671875 165.878906 124.839844 165.847656 124.972656 165.847656 C 125.074219 165.847656 125.242188 165.746094 125.375 165.542969 C 125.507812 165.34375 125.640625 165.210938 125.742188 165.175781 C 125.839844 165.109375 125.875 165.109375 125.90625 165.109375 C 125.941406 165.140625 126.007812 165.109375 126.074219 165.042969 C 126.140625 164.972656 126.207031 164.90625 126.242188 164.808594 C 126.242188 164.707031 126.339844 164.640625 126.507812 164.570312 C 126.640625 164.503906 126.742188 164.4375 126.777344 164.371094 C 126.777344 164.304688 126.875 164.238281 126.976562 164.167969 C 127.074219 164.101562 127.140625 164.035156 127.175781 163.933594 C 127.210938 163.832031 127.34375 163.699219 127.609375 163.5 C 127.875 163.265625 128.042969 163.097656 128.109375 162.960938 C 128.175781 162.828125 128.210938 162.761719 128.277344 162.726562 C 128.34375 162.695312 128.445312 162.558594 128.578125 162.257812 C 128.710938 161.957031 128.84375 161.753906 129.011719 161.621094 C 129.144531 161.484375 129.246094 161.386719 129.246094 161.285156 C 129.246094 161.183594 129.3125 161.082031 129.410156 160.984375 C 129.511719 160.882812 129.578125 160.679688 129.679688 160.414062 C 129.746094 160.144531 129.8125 159.941406 129.878906 159.875 C 129.945312 159.773438 129.980469 159.675781 129.980469 159.539062 C 129.980469 159.40625 130.011719 159.304688 130.113281 159.238281 C 130.210938 159.171875 130.277344 159.070312 130.34375 158.902344 C 130.414062 158.734375 130.445312 158.601562 130.414062 158.398438 C 130.414062 158.199219 130.414062 158.097656 130.480469 158.03125 C 130.546875 157.996094 130.578125 157.796875 130.546875 157.460938 C 130.511719 157.125 130.546875 156.855469 130.578125 156.621094 C 130.613281 156.421875 130.644531 156.285156 130.679688 156.285156 C 130.710938 156.285156 130.746094 156.253906 130.746094 156.1875 C 130.746094 156.117188 130.746094 155.949219 130.710938 155.714844 C 130.578125 155.714844 130.578125 155.582031 130.546875 155.480469 Z M 130.546875 155.480469 " fill-opacity="1" fill-rule="nonzero"/></g></svg>