<svg xmlns="http://www.w3.org/2000/svg" xmlns:xlink="http://www.w3.org/1999/xlink" width="40" zoomAndPan="magnify" viewBox="0 0 30 30.000001" height="40" preserveAspectRatio="xMidYMid meet" version="1.0"><defs><clipPath id="c70e87d846"><path d="M 7.851562 7.367188 L 22.367188 7.367188 L 22.367188 21.882812 L 7.851562 21.882812 Z M 7.851562 7.367188 " clip-rule="nonzero"/></clipPath></defs><g clip-path="url(#c70e87d846)"><path fill="#ffffff" d="M 7.851562 13.820312 L 22.367188 13.820312 L 22.367188 20.269531 C 22.367188 20.484375 22.324219 20.691406 22.246094 20.886719 C 22.164062 21.085938 22.046875 21.257812 21.894531 21.410156 C 21.742188 21.5625 21.570312 21.679688 21.371094 21.761719 C 21.171875 21.84375 20.96875 21.882812 20.753906 21.882812 L 9.464844 21.882812 C 9.25 21.882812 9.042969 21.84375 8.847656 21.761719 C 8.648438 21.679688 8.472656 21.5625 8.324219 21.410156 C 8.171875 21.257812 8.054688 21.085938 7.972656 20.886719 C 7.890625 20.691406 7.851562 20.484375 7.851562 20.269531 Z M 22.367188 8.980469 L 22.367188 12.207031 L 7.851562 12.207031 L 7.851562 8.980469 C 7.851562 8.765625 7.890625 8.558594 7.972656 8.363281 C 8.054688 8.164062 8.171875 7.992188 8.324219 7.839844 C 8.472656 7.6875 8.648438 7.570312 8.847656 7.488281 C 9.042969 7.40625 9.25 7.367188 9.464844 7.367188 L 20.753906 7.367188 C 20.96875 7.367188 21.171875 7.40625 21.371094 7.488281 C 21.570312 7.570312 21.742188 7.6875 21.894531 7.839844 C 22.046875 7.992188 22.164062 8.164062 22.246094 8.363281 C 22.324219 8.558594 22.367188 8.765625 22.367188 8.980469 Z M 11.078125 9.785156 C 11.078125 9.5625 10.996094 9.375 10.839844 9.214844 C 10.683594 9.058594 10.492188 8.980469 10.269531 8.980469 C 10.046875 8.980469 9.855469 9.058594 9.699219 9.214844 C 9.542969 9.375 9.464844 9.5625 9.464844 9.785156 C 9.464844 10.007812 9.542969 10.199219 9.699219 10.355469 C 9.855469 10.515625 10.046875 10.59375 10.269531 10.59375 C 10.492188 10.59375 10.683594 10.515625 10.839844 10.355469 C 10.996094 10.199219 11.078125 10.007812 11.078125 9.785156 Z M 13.496094 9.785156 C 13.496094 9.5625 13.417969 9.375 13.257812 9.214844 C 13.101562 9.058594 12.914062 8.980469 12.691406 8.980469 C 12.46875 8.980469 12.277344 9.058594 12.121094 9.214844 C 11.960938 9.375 11.882812 9.5625 11.882812 9.785156 C 11.882812 10.007812 11.960938 10.199219 12.121094 10.355469 C 12.277344 10.515625 12.46875 10.59375 12.691406 10.59375 C 12.914062 10.59375 13.101562 10.515625 13.257812 10.355469 C 13.417969 10.199219 13.496094 10.007812 13.496094 9.785156 Z M 15.914062 9.785156 C 15.914062 9.5625 15.835938 9.375 15.679688 9.214844 C 15.523438 9.058594 15.332031 8.980469 15.109375 8.980469 C 14.886719 8.980469 14.695312 9.058594 14.539062 9.214844 C 14.382812 9.375 14.300781 9.5625 14.300781 9.785156 C 14.300781 10.007812 14.382812 10.199219 14.539062 10.355469 C 14.695312 10.515625 14.886719 10.59375 15.109375 10.59375 C 15.332031 10.59375 15.523438 10.515625 15.679688 10.355469 C 15.835938 10.199219 15.914062 10.007812 15.914062 9.785156 Z M 15.914062 9.785156 " fill-opacity="1" fill-rule="nonzero"/></g></svg>